<svg xmlns="http://www.w3.org/2000/svg" xmlns:xlink="http://www.w3.org/1999/xlink" width="500" zoomAndPan="magnify" viewBox="0 0 375 374.999991" height="500" preserveAspectRatio="xMidYMid meet" version="1.0"><defs><clipPath id="4300d0443f"><path d="M 3.882812 3 L 375 3 L 375 372 L 3.882812 372 Z M 3.882812 3 " clip-rule="nonzero"/></clipPath></defs><rect x="-37.5" width="450" fill="#ffffff" y="-37.499999" height="449.999989" fill-opacity="1"/><rect x="-37.5" width="450" fill="#14142c" y="-37.499999" height="449.999989" fill-opacity="1"/><g clip-path="url(#4300d0443f)"><path fill="#484670" d="M 177.414062 369.703125 C 108.074219 348.601562 69.417969 309.9375 49.210938 281.214844 C 26.710938 249.253906 21.074219 221.371094 20.847656 220.195312 L 20.375 217.519531 L 20.375 202.273438 C 14.347656 198.410156 11.269531 194.6875 10.914062 194.246094 L 3.882812 185.625 L 14.191406 181.304688 L 14.828125 181.039062 C 15.78125 180.628906 17.734375 179.808594 20.375 178.679688 L 20.375 43.417969 L 46.121094 43.417969 C 117.992188 43.417969 169.21875 12.753906 171.367188 11.445312 L 184.929688 3 L 198.578125 11.5 C 198.65625 11.546875 208.15625 17.316406 224.425781 23.882812 C 230.507812 21.871094 234.527344 20.503906 234.804688 20.410156 L 246.09375 16.578125 L 245.925781 28.40625 C 245.925781 28.4375 245.925781 29.550781 245.769531 31.449219 C 271.460938 39.398438 297.675781 43.429688 323.722656 43.429688 L 349.46875 43.429688 L 349.46875 162.953125 C 352.730469 163.65625 355.574219 164.199219 358.277344 164.613281 L 374.960938 167.195312 L 362.824219 178.867188 C 358.65625 182.871094 354.273438 186.351562 349.46875 189.472656 L 349.46875 217.75 L 348.996094 220.179688 C 348.394531 223.179688 342.507812 250.164062 320.644531 281.222656 C 300.410156 309.945312 261.738281 348.609375 192.417969 369.710938 L 184.921875 372 Z M 177.414062 369.703125 " fill-opacity="1" fill-rule="nonzero"/></g><path fill="#cdd3ed" d="M 339.371094 53.515625 L 339.371094 167.390625 C 338.382812 167.140625 337.386719 166.894531 336.390625 166.644531 C 332.746094 165.703125 329.101562 164.738281 325.464844 163.753906 L 325.464844 67.429688 L 323.722656 67.429688 C 293.363281 67.429688 263.007812 62.5 233.472656 52.789062 C 235.640625 48.078125 237.007812 43.460938 237.867188 39.515625 C 266.074219 48.789062 294.945312 53.515625 323.722656 53.515625 Z M 334.589844 189.894531 C 333.125 190.53125 331.578125 191 330.050781 191.503906 C 328.523438 191.894531 326.921875 192.308594 325.457031 192.609375 L 325.457031 215.445312 L 325.433594 215.609375 C 325.246094 216.574219 320.605469 239.558594 301.003906 267.402344 C 282.953125 293.035156 248.246094 327.625 185.425781 346.742188 L 184.921875 346.898438 L 184.421875 346.742188 C 121.597656 327.625 86.894531 293.035156 68.839844 267.402344 C 49.242188 239.558594 44.609375 216.574219 44.417969 215.609375 L 44.386719 215.28125 L 44.386719 204.148438 C 38.933594 203.347656 34.308594 201.890625 30.472656 200.1875 L 30.472656 216.777344 L 30.765625 218.265625 C 30.976562 219.347656 36.257812 245.273438 57.472656 275.40625 C 76.78125 302.835938 113.765625 339.773438 180.367188 360.046875 L 184.929688 361.433594 L 189.484375 360.046875 C 256.078125 339.773438 293.082031 302.828125 312.394531 275.40625 C 333.585938 245.296875 338.878906 219.347656 339.089844 218.25 L 339.378906 216.785156 L 339.378906 187.707031 C 337.820312 188.507812 336.226562 189.246094 334.589844 189.894531 Z M 193.246094 20.074219 L 184.921875 14.902344 L 176.628906 20.058594 C 174.386719 21.429688 121.183594 53.515625 46.113281 53.515625 L 30.464844 53.515625 L 30.464844 181.570312 C 34.652344 179.792969 39.449219 177.722656 44.378906 175.582031 L 44.378906 67.429688 L 46.121094 67.429688 C 126.300781 67.429688 183.433594 32.203125 183.996094 31.855469 L 184.921875 31.277344 L 185.847656 31.855469 C 185.902344 31.878906 190.652344 34.835938 199.160156 38.976562 C 206.058594 36.835938 213.027344 34.585938 219.078125 32.609375 C 202.898438 25.953125 193.671875 20.332031 193.246094 20.074219 Z M 193.246094 20.074219 " fill-opacity="1" fill-rule="nonzero"/><path fill="#69729b" d="M 182.390625 353.398438 C 117.675781 333.699219 81.820312 297.9375 63.148438 271.402344 C 42.703125 242.355469 37.789062 217.960938 37.59375 216.933594 L 37.433594 216.109375 L 37.433594 60.46875 L 46.128906 60.46875 C 124.113281 60.46875 179.765625 26.300781 180.3125 25.953125 L 184.929688 23.070312 L 189.546875 25.953125 C 190.097656 26.292969 245.746094 60.460938 323.722656 60.460938 L 332.417969 60.460938 L 332.417969 216.109375 L 332.261719 216.933594 C 332.066406 217.960938 327.148438 242.355469 306.703125 271.402344 C 288.023438 297.929688 252.175781 333.691406 187.460938 353.398438 L 184.929688 354.167969 Z M 182.390625 353.398438 " fill-opacity="1" fill-rule="nonzero"/><path fill="#484670" d="M 304.824219 235.402344 L 304.519531 235.9375 C 304.296875 236.335938 304.070312 236.578125 303.859375 236.90625 C 302.957031 238.089844 302.015625 239.054688 301.070312 240.027344 C 297.242188 243.796875 293.199219 247.113281 289.144531 250.4375 C 281.046875 257.054688 272.753906 263.390625 264.929688 270.113281 C 263.964844 270.960938 263 271.816406 262.070312 272.6875 C 261.121094 273.546875 260.242188 274.417969 259.261719 275.34375 C 257.355469 277.179688 255.398438 278.933594 253.4375 280.675781 C 249.488281 284.148438 245.472656 287.511719 241.332031 290.722656 C 237.210938 293.960938 232.976562 297.035156 228.609375 299.957031 C 227.527344 300.695312 226.414062 301.394531 225.300781 302.089844 C 224.203125 302.804688 223.074219 303.480469 221.9375 304.136719 C 219.65625 305.4375 217.367188 306.738281 214.898438 307.648438 C 217.125 306.277344 219.164062 304.648438 221.234375 303.078125 C 223.273438 301.464844 225.300781 299.847656 227.300781 298.179688 C 231.332031 294.894531 235.289062 291.523438 239.242188 288.160156 C 243.175781 284.773438 247.109375 281.378906 250.914062 277.875 C 252.816406 276.121094 254.707031 274.347656 256.511719 272.53125 C 257.402344 271.644531 258.351562 270.648438 259.316406 269.746094 C 260.28125 268.835938 261.261719 267.9375 262.25 267.058594 C 270.144531 260.066406 278.414062 253.699219 286.511719 247.175781 C 288.535156 245.554688 290.554688 243.917969 292.539062 242.253906 C 294.515625 240.59375 296.492188 238.929688 298.316406 237.191406 C 299.210938 236.320312 300.113281 235.433594 300.808594 234.546875 C 300.949219 234.335938 301.164062 234.101562 301.265625 233.921875 L 301.4375 233.648438 C 301.460938 233.578125 301.46875 233.542969 301.5 233.496094 C 301.53125 233.496094 301.5625 233.277344 301.59375 233.167969 L 301.679688 232.761719 C 301.75 232.488281 301.765625 232.203125 301.8125 231.9375 C 301.953125 230.832031 301.914062 229.710938 301.726562 228.605469 C 301.632812 228.058594 301.484375 227.515625 301.304688 226.992188 C 301.296875 226.96875 301.289062 226.9375 301.273438 226.914062 C 296.160156 228.933594 290.824219 228.984375 286.144531 229.015625 C 283.414062 229.03125 280.835938 229.0625 278.796875 229.492188 C 276.703125 229.945312 274.664062 230.117188 272.777344 230.117188 C 267.273438 230.117188 263.039062 228.636719 262.164062 228.308594 C 260.109375 229.585938 257.929688 230.675781 255.648438 231.421875 C 250.449219 233.222656 244.980469 233.726562 239.804688 234.367188 C 239.164062 234.453125 238.511719 234.53125 237.882812 234.632812 C 237.257812 234.730469 236.621094 234.816406 236.027344 234.957031 L 235.117188 235.136719 C 234.828125 235.214844 234.550781 235.308594 234.261719 235.386719 C 234.003906 235.472656 233.652344 235.542969 233.472656 235.644531 C 233.242188 235.730469 233.039062 235.824219 232.828125 235.96875 C 231.980469 236.460938 231.207031 237.261719 230.53125 238.203125 C 229.847656 239.140625 229.277344 240.207031 228.773438 241.328125 C 226.761719 245.851562 225.726562 251.058594 225.042969 256.074219 L 224.636719 259.101562 L 222.308594 257.328125 L 222.292969 257.3125 C 221.226562 256.515625 220.175781 255.691406 219.25 254.742188 C 218.308594 253.816406 217.433594 252.828125 216.640625 251.785156 C 215.832031 250.753906 215.09375 249.671875 214.429688 248.542969 C 214.21875 248.1875 214.023438 247.835938 213.824219 247.484375 C 211.90625 249.609375 209.84375 251.574219 207.617188 253.339844 C 204.683594 255.636719 201.621094 257.746094 198.398438 259.554688 C 196.816406 260.519531 195.160156 261.320312 193.539062 262.1875 C 191.875 262.980469 190.230469 263.828125 188.550781 264.550781 C 185.203125 266.070312 181.792969 267.402344 178.375 268.679688 C 174.957031 269.957031 171.5 271.132812 168.105469 272.324219 C 167.292969 272.640625 166.367188 272.914062 165.652344 273.265625 L 164.507812 273.753906 L 163.386719 274.363281 C 161.890625 275.171875 160.464844 276.183594 159.0625 277.21875 C 156.261719 279.316406 153.636719 281.726562 151.121094 284.25 C 148.625 286.773438 146.1875 289.445312 143.96875 292.175781 L 142.191406 294.355469 L 141.046875 291.835938 C 140.300781 290.214844 139.636719 288.5625 139.132812 286.867188 C 138.632812 285.183594 138.191406 283.472656 137.886719 281.757812 C 137.574219 280.03125 137.332031 278.316406 137.171875 276.574219 C 137.125 276.082031 137.09375 275.585938 137.0625 275.085938 L 132.816406 278.792969 L 130.046875 281.199219 L 129.9375 277.585938 L 129.84375 274.480469 C 129.867188 273.445312 129.859375 272.410156 129.921875 271.378906 C 130.046875 269.300781 130.257812 267.230469 130.652344 265.167969 C 131.042969 263.113281 131.578125 261.078125 132.304688 259.09375 C 132.660156 258.144531 133.042969 257.203125 133.503906 256.285156 C 132.46875 256.285156 131.433594 256.316406 130.402344 256.222656 C 128.253906 256.128906 126.113281 255.753906 124.011719 255.265625 C 121.910156 254.78125 119.863281 254.042969 117.882812 253.167969 C 116.894531 252.71875 115.9375 252.21875 114.988281 251.675781 C 114.25 251.230469 113.5625 250.808594 112.839844 250.273438 C 108.757812 250.902344 104.59375 251.316406 100.359375 251.128906 C 98.109375 251.019531 95.84375 250.722656 93.609375 250.140625 C 91.382812 249.566406 89.214844 248.628906 87.230469 247.429688 C 86.726562 247.136719 86.265625 246.800781 85.78125 246.488281 C 85.480469 246.308594 85.199219 246.144531 84.800781 246.023438 C 84.03125 245.773438 83.097656 245.679688 82.125 245.671875 C 80.191406 245.65625 78.128906 245.960938 76.089844 246.378906 C 72.03125 247.246094 67.945312 248.558594 64.058594 250.0625 L 62.433594 250.695312 C 65.09375 255.417969 68.195312 260.410156 71.824219 265.558594 C 89.511719 290.628906 123.496094 324.433594 184.960938 343.269531 C 214.34375 334.261719 237.429688 321.839844 255.476562 308.582031 C 279.054688 290.828125 293.910156 261.875 293.910156 261.875 L 278.554688 269.535156 C 295.496094 256.875 304.21875 236.75 304.824219 235.402344 Z M 118.539062 290.921875 C 114.085938 288.300781 109.832031 285.394531 105.738281 282.265625 C 101.667969 279.113281 97.734375 275.789062 94.027344 272.238281 C 90.304688 268.703125 86.726562 264.988281 83.546875 260.917969 C 87.714844 263.945312 91.761719 267.058594 95.78125 270.183594 L 107.855469 279.507812 C 111.890625 282.585938 115.953125 285.613281 120.019531 288.640625 C 124.144531 291.601562 128.308594 294.503906 132.546875 297.441406 C 127.648438 295.804688 123 293.5 118.539062 290.921875 Z M 189.570312 306.417969 C 184.859375 308.535156 179.773438 309.8125 174.667969 310.339844 C 169.566406 310.871094 164.414062 310.652344 159.390625 309.882812 C 154.71875 309.144531 150.125 307.96875 145.757812 306.230469 C 145.113281 305.988281 144.769531 305.832031 144.769531 305.832031 C 178.039062 312.195312 203.53125 290.449219 203.53125 290.449219 L 162.722656 295.851562 C 170.445312 294 178.015625 291.625 185.511719 289.054688 C 193.011719 286.492188 200.429688 283.691406 207.8125 280.808594 C 215.199219 277.921875 222.519531 274.898438 229.832031 271.824219 C 233.488281 270.289062 237.125 268.710938 240.753906 267.128906 C 244.390625 265.550781 248.019531 263.953125 251.609375 262.324219 L 265.574219 255.957031 L 253.335938 265.222656 C 245.261719 271.34375 237.03125 277.21875 228.695312 282.964844 C 224.535156 285.832031 220.324219 288.640625 216.058594 291.382812 C 211.796875 294.117188 207.492188 296.808594 203.109375 299.355469 C 198.726562 301.894531 194.257812 304.332031 189.570312 306.417969 Z M 172.417969 191.246094 C 171.996094 193.15625 169.210938 200.511719 167.292969 205.472656 C 166.320312 203.605469 165.730469 201.960938 165.722656 201.945312 L 165.261719 200.621094 L 163.882812 200.785156 C 159.289062 201.324219 152.25 203.835938 149.082031 205.027344 L 142.746094 188.851562 L 145.265625 176.625 C 148.09375 181.171875 153.277344 187.867188 160.839844 187.914062 C 165.875 187.914062 169.171875 185.65625 171.117188 183.160156 C 171.988281 186.515625 172.691406 189.996094 172.417969 191.246094 Z M 217.265625 185.992188 L 221.28125 194.679688 C 211.019531 208.867188 192.09375 201.238281 191.28125 200.902344 L 190.824219 200.714844 L 190.347656 200.792969 C 184.113281 201.75 175.507812 204.617188 170.671875 206.351562 C 172.464844 201.734375 175.3125 194.230469 175.8125 192.003906 C 176.550781 188.648438 173.773438 179.746094 173.210938 177.988281 L 172.914062 177.0625 L 146.511719 170.523438 L 147.097656 167.65625 L 147.960938 167.6875 L 152.367188 167.9375 C 164.132812 168.636719 175.914062 169.460938 187.691406 170.28125 L 215.792969 172.429688 L 178.714844 177.171875 L 180.546875 179.570312 C 185.21875 185.695312 190.605469 188.796875 196.5625 188.796875 L 196.695312 188.796875 C 208.902344 188.703125 218.8125 175.519531 219.226562 174.960938 L 220.808594 172.8125 L 222.292969 172.925781 C 224.605469 176.953125 226.09375 182.324219 226.761719 185.121094 Z M 217.265625 185.992188 " fill-opacity="1" fill-rule="nonzero"/><path fill="#26263e" d="M 145.632812 165.75 L 222.761719 170.746094 L 225.371094 175.285156 C 225.371094 175.285156 215.046875 188.210938 204.84375 193.429688 C 194.636719 198.652344 185.558594 192.625 185.558594 192.625 C 194.628906 194.535156 199.621094 191.054688 199.621094 191.054688 C 180.871094 193.746094 172.929688 177.070312 172.929688 177.070312 L 174.222656 191.839844 L 167.074219 208.167969 L 165.269531 200.621094 L 167.980469 191.046875 C 145.976562 193.320312 142.753906 181.171875 142.753906 181.171875 Z M 224.605469 259.125 C 224.605469 259.125 231.085938 241.445312 238.910156 239.242188 C 246.734375 237.035156 258.367188 237.097656 262.789062 233.371094 C 262.789062 233.371094 273.277344 235.960938 281.621094 234.625 C 281.621094 234.625 267.839844 249.535156 255.757812 255.964844 C 243.675781 262.394531 181.410156 293.011719 150.953125 291.820312 C 150.953125 291.820312 156.058594 299.136719 169.667969 299.480469 C 169.667969 299.480469 150.492188 305.957031 136.710938 302.890625 C 136.710938 302.890625 147.71875 315.980469 173.578125 315.816406 C 199.441406 315.644531 234.65625 285.101562 234.65625 285.101562 L 205.164062 312.585938 C 205.164062 312.585938 222.066406 308.675781 234.480469 299.824219 C 246.898438 290.976562 279.566406 263.246094 279.566406 263.246094 L 270.039062 276.519531 L 279.566406 272.097656 L 275.828125 276.863281 L 280.59375 274.605469 C 280.59375 274.605469 272.328125 295.828125 247.972656 313.828125 L 270.046875 299.667969 C 270.046875 299.667969 305.394531 253.394531 304.824219 252.882812 C 304.242188 252.375 305.609375 233.394531 305.609375 233.394531 L 301.351562 225.148438 L 279.574219 226.9375 L 269.367188 228.753906 L 261.707031 226.660156 L 245.105469 231.710938 L 229.011719 234.640625 L 223.671875 244.449219 Z M 249.863281 298.5625 C 249.863281 298.5625 221.242188 320.113281 186.097656 330.773438 C 186.097656 330.773438 217.195312 335.3125 249.863281 298.5625 Z M 132.546875 297.441406 C 113.226562 285.433594 81.320312 252.03125 81.320312 252.03125 C 66.800781 272.425781 132.546875 297.441406 132.546875 297.441406 Z M 62.386719 254.554688 C 62.386719 254.554688 77.148438 247.40625 83.546875 249.625 C 89.941406 251.839844 97.195312 256.601562 110.355469 254.554688 C 110.355469 254.554688 124.058594 262.519531 133.433594 260.917969 L 135.535156 252.03125 L 113.074219 248.730469 L 98.964844 248.730469 L 85.71875 245.367188 L 80.417969 244.433594 L 64.699219 248.738281 L 60.90625 249.632812 Z M 142.167969 294.363281 C 142.167969 294.363281 153 283.847656 168.65625 279.183594 C 184.3125 274.519531 206.714844 260.714844 212.210938 255.007812 C 217.707031 249.300781 217.707031 249.300781 217.707031 249.300781 L 213.574219 245.03125 L 197.019531 257.28125 L 164.351562 270.46875 L 148.46875 283.300781 Z M 142.167969 294.363281 " fill-opacity="1" fill-rule="nonzero"/><path fill="#cdd3ed" d="M 286.425781 214.402344 C 277.878906 209.980469 266.65625 211.34375 266.65625 211.34375 C 266.65625 211.34375 277.449219 207.433594 286.425781 209.296875 C 286.425781 209.296875 283.773438 199.089844 276.601562 197.234375 C 275.921875 197.09375 275.238281 196.960938 274.523438 196.847656 C 273.796875 196.746094 273.066406 196.636719 272.320312 196.527344 C 259.316406 194.632812 244.609375 192.492188 242.5625 174.46875 L 226.382812 173.230469 C 229.199219 179.109375 230.539062 186.015625 230.609375 186.351562 L 230.960938 188.242188 L 222.496094 189.011719 L 225.269531 195 L 224.738281 195.816406 C 213.96875 212.042969 193.820312 205.535156 190.433594 204.296875 C 181.847656 205.730469 168.414062 210.890625 168.28125 210.9375 L 167.066406 211.40625 L 166.273438 210.371094 C 164.738281 208.347656 163.585938 205.917969 162.964844 204.429688 C 157.335938 205.457031 148.824219 208.851562 148.730469 208.882812 L 147.105469 209.535156 L 141.476562 195.148438 C 139.421875 195.515625 137.308594 196.050781 135.277344 196.683594 C 132.800781 197.46875 130.378906 198.449219 128.082031 199.601562 C 125.753906 200.730469 123.605469 202.15625 121.582031 203.707031 C 119.542969 205.269531 117.828125 207.140625 116.242188 209.109375 L 115.976562 209.4375 L 115.679688 209.597656 C 113.265625 210.851562 110.875 211.902344 108.402344 212.878906 C 105.941406 213.851562 103.433594 214.722656 100.871094 215.453125 C 98.316406 216.179688 95.703125 216.800781 93.039062 217.167969 C 92.378906 217.277344 91.699219 217.332031 91.03125 217.402344 L 89.089844 217.609375 C 87.839844 217.703125 86.609375 217.90625 85.371094 218.101562 C 80.464844 218.996094 75.667969 220.671875 71.652344 223.433594 C 69.664062 224.820312 67.890625 226.480469 66.480469 228.402344 C 65.789062 229.34375 65.203125 230.339844 64.707031 231.398438 C 64.707031 231.398438 72.640625 226.136719 83.5625 227.671875 C 94.488281 229.203125 109.460938 228.699219 115.585938 226.90625 C 115.585938 226.90625 101.589844 235.488281 89.105469 234.046875 L 83.152344 235.183594 C 82.285156 235.347656 81.257812 235.605469 80.316406 235.921875 C 79.359375 236.234375 78.425781 236.601562 77.5 237.003906 C 75.667969 237.808594 73.917969 238.820312 72.320312 240.003906 C 71.496094 240.578125 70.777344 241.25 70.023438 241.902344 C 69.671875 242.246094 69.332031 242.613281 68.988281 242.96875 L 68.488281 243.507812 L 68.023438 244.089844 C 67.710938 244.457031 67.414062 244.832031 67.136719 245.234375 C 69.828125 244.339844 72.539062 243.554688 75.355469 242.953125 C 77.53125 242.503906 79.757812 242.152344 82.132812 242.167969 C 83.316406 242.183594 84.542969 242.277344 85.828125 242.691406 C 86.460938 242.882812 87.136719 243.21875 87.746094 243.625 C 88.164062 243.894531 88.5625 244.199219 89 244.441406 C 92.378906 246.535156 96.378906 247.453125 100.484375 247.640625 C 104.609375 247.820312 108.8125 247.382812 112.980469 246.714844 L 113.75 246.589844 C 117.542969 248 122.726562 247.390625 122.726562 247.390625 C 115.402344 245.523438 112.175781 237.519531 112.175781 237.519531 C 112.175781 237.519531 122.890625 245.859375 132.546875 240.578125 C 142.207031 235.308594 154.867188 235.984375 154.867188 235.984375 C 148.917969 237.347656 142.746094 241.941406 142.746094 241.941406 C 149.675781 239.394531 159.804688 239.894531 159.804688 239.894531 C 146.878906 244.832031 140.332031 252.359375 140.332031 252.359375 L 137.972656 255.410156 C 137.792969 255.644531 137.503906 256.089844 137.285156 256.460938 C 137.054688 256.851562 136.828125 257.25 136.632812 257.667969 C 136.210938 258.496094 135.855469 259.367188 135.519531 260.261719 C 134.867188 262.039062 134.390625 263.898438 134.023438 265.78125 C 133.667969 267.667969 133.464844 269.597656 133.355469 271.527344 C 133.300781 272.246094 133.300781 272.96875 133.292969 273.699219 L 137.519531 270.011719 L 140.457031 267.457031 L 140.394531 271.378906 C 140.378906 272.921875 140.457031 274.613281 140.605469 276.230469 C 140.757812 277.867188 140.976562 279.492188 141.265625 281.089844 C 141.554688 282.695312 141.957031 284.273438 142.410156 285.816406 C 142.613281 286.476562 142.832031 287.117188 143.070312 287.753906 C 155.148438 265.84375 175.546875 261.648438 179.875 260.996094 C 175.8125 261.34375 169.203125 259.453125 169.203125 259.453125 C 189.679688 256.050781 214.6875 241 214.6875 241 L 215.808594 243.695312 C 216.207031 244.660156 216.773438 245.765625 217.367188 246.746094 C 217.957031 247.757812 218.625 248.722656 219.335938 249.640625 C 220.042969 250.5625 220.820312 251.433594 221.640625 252.242188 C 221.734375 252.335938 221.828125 252.40625 221.914062 252.5 C 221.679688 252.046875 214.898438 238.804688 226.753906 225.597656 C 226.753906 225.597656 225.96875 229.671875 225.632812 232.390625 C 225.632812 232.390625 228.515625 228.480469 237.023438 228.652344 C 245.535156 228.816406 254.589844 228.113281 268.175781 221.410156 C 267.609375 223.015625 266.671875 224.453125 265.496094 225.675781 C 268.175781 226.355469 272.917969 227.164062 278.011719 226.058594 C 280.40625 225.550781 283.15625 225.523438 286.0625 225.5 C 293.199219 225.445312 301.195312 225.390625 307.472656 218.257812 C 307.503906 218.296875 294.960938 218.832031 286.425781 214.402344 Z M 175.539062 234.273438 C 158.949219 230.339844 152.148438 226.820312 152.148438 226.820312 C 162.699219 228.863281 177.671875 224.183594 177.671875 224.183594 C 171.375 223.085938 160.683594 223.832031 160.683594 223.832031 C 174.308594 216.242188 203.714844 213.382812 203.714844 213.382812 C 200.136719 215.601562 195.035156 221.894531 195.035156 221.894531 C 203.714844 219.003906 212.21875 213.382812 212.21875 213.382812 C 201.660156 229.539062 175.539062 234.273438 175.539062 234.273438 Z M 175.539062 234.273438 " fill-opacity="1" fill-rule="nonzero"/><path fill="#69729b" d="M 335.539062 170.007812 C 328.554688 168.210938 321.613281 166.332031 314.699219 164.339844 C 300.871094 160.367188 287.144531 156.164062 273.449219 151.765625 L 272.886719 151.585938 L 272.542969 151.074219 C 271.609375 149.703125 270.128906 148.527344 268.535156 147.515625 C 266.929688 146.503906 265.148438 145.667969 263.332031 144.9375 C 261.496094 144.207031 259.613281 143.566406 257.695312 143.015625 C 255.789062 142.476562 253.804688 141.984375 251.902344 141.613281 L 250.953125 141.433594 L 227.160156 114.710938 C 215.371094 113.660156 185.816406 122.605469 184.945312 122.863281 C 192.03125 117.242188 210.683594 107.90625 210.683594 107.90625 C 205.34375 108.5625 191.085938 113.164062 190.527344 113.339844 C 210 98.875 227.160156 90.542969 227.160156 90.542969 L 203.949219 64.148438 L 203 62.734375 L 203.910156 61.882812 L 213.753906 52.789062 L 207.40625 62.8125 C 207.40625 62.8125 227.828125 58.449219 235.664062 30.765625 C 225.300781 34.265625 185.925781 47.394531 170.90625 50.53125 C 169.046875 57.328125 158.992188 93.683594 156.417969 98.515625 C 153.644531 103.71875 129.027344 133.289062 127.976562 134.542969 L 127.710938 134.871094 C 139.40625 134.800781 158.519531 129.722656 159.890625 129.371094 C 158.730469 129.847656 146.015625 135.042969 135.300781 137.160156 C 124.074219 139.371094 116.320312 139.613281 116.320312 139.613281 L 118.0625 151.089844 L 116.492188 151.460938 C 116.25 151.523438 91.675781 157.285156 77.070312 164.589844 C 64.222656 171.019531 29.777344 185.671875 20.457031 189.613281 C 24.015625 192.898438 33.242188 199.875 48.535156 201.105469 C 68.289062 202.699219 90.507812 211.902344 94.167969 213.460938 C 96.097656 213.125 98.007812 212.652344 99.914062 212.113281 C 104.664062 210.742188 109.382812 208.867188 113.765625 206.648438 C 115.460938 204.5625 117.300781 202.59375 119.417969 200.980469 C 119.800781 200.683594 120.1875 200.410156 120.578125 200.125 C 117.882812 198.519531 105.117188 191.230469 94.816406 191.03125 C 83.246094 190.8125 67.664062 187.433594 67.664062 187.433594 C 61.777344 188.171875 55.878906 188.742188 49.960938 189.003906 C 61.523438 186.4375 73.113281 184.171875 84.492188 181.359375 C 87.332031 180.636719 90.152344 179.894531 92.929688 179.046875 C 95.6875 178.175781 98.457031 177.242188 100.878906 175.972656 C 101.183594 175.824219 101.480469 175.667969 101.75 175.488281 C 102.039062 175.316406 102.28125 175.175781 102.617188 174.945312 C 103.261719 174.53125 103.894531 174.117188 104.546875 173.707031 L 106.523438 172.546875 L 108.535156 171.480469 C 111.25 170.109375 114.046875 168.925781 116.917969 167.945312 C 122.648438 165.953125 128.605469 164.707031 134.609375 164.074219 C 137.621094 163.777344 140.65625 163.65625 143.679688 163.707031 L 148.171875 163.917969 L 152.601562 164.191406 C 164.40625 164.984375 176.183594 165.882812 187.957031 166.800781 C 211.519531 168.574219 235.070312 170.328125 258.609375 172.289062 C 282.144531 174.375 305.703125 176.121094 329.109375 179.601562 C 324.9375 179.546875 320.769531 179.429688 316.605469 179.273438 L 316.824219 179.296875 C 316.824219 179.296875 304.421875 187.339844 294.726562 187.683594 C 287.429688 187.945312 275.035156 191.03125 269.335938 192.546875 C 270.496094 192.726562 271.65625 192.890625 272.832031 193.070312 C 273.570312 193.179688 274.3125 193.289062 275.042969 193.398438 C 280.710938 194.253906 285.53125 196.253906 289.402344 198.714844 C 295.101562 196.953125 300.792969 195.28125 306.53125 193.707031 C 312.539062 192.058594 318.566406 190.507812 324.679688 189.199219 C 326.257812 188.882812 327.621094 188.507812 329.070312 188.148438 C 330.488281 187.675781 331.914062 187.253906 333.296875 186.652344 C 336.070312 185.539062 338.773438 184.171875 341.363281 182.605469 C 345.53125 180.121094 349.554688 177.179688 353.207031 173.957031 C 347.226562 172.910156 341.371094 171.488281 335.539062 170.007812 Z M 217.085938 148.175781 C 212.578125 147.941406 208.085938 147.546875 203.578125 147.15625 C 199.089844 146.703125 194.589844 146.199219 190.105469 145.550781 C 187.878906 145.234375 185.582031 144.765625 183.417969 144.460938 C 182.335938 144.3125 181.261719 144.105469 180.164062 144.003906 L 176.878906 143.699219 C 172.472656 143.371094 168.027344 143.433594 163.578125 143.597656 C 159.125 143.808594 154.664062 144.183594 150.210938 144.734375 C 145.75 145.242188 141.3125 145.933594 136.859375 146.703125 C 141.125 145.1875 145.507812 144.050781 149.929688 143.054688 C 154.355469 142.117188 158.839844 141.339844 163.371094 140.902344 C 167.902344 140.414062 172.472656 140.273438 177.066406 140.414062 L 180.507812 140.664062 C 181.652344 140.75 182.796875 140.964844 183.941406 141.097656 C 186.246094 141.402344 188.371094 141.816406 190.605469 142.109375 C 195.019531 142.804688 199.488281 143.324219 203.933594 143.878906 C 208.386719 144.453125 212.855469 144.90625 217.3125 145.464844 C 226.25 146.488281 235.203125 147.507812 244.148438 148.738281 C 235.125 148.96875 226.101562 148.699219 217.085938 148.175781 Z M 146.519531 252.179688 C 156.710938 242.652344 185.496094 236.867188 199.613281 230.519531 C 213.730469 224.167969 216.484375 208.96875 216.484375 208.96875 C 195.757812 208.796875 170.011719 215.4375 161.671875 218.664062 C 153.339844 221.894531 142.738281 225.296875 142.738281 225.296875 L 147.890625 232.101562 C 136.320312 232.785156 138.191406 235.332031 127.476562 237.207031 C 119.199219 238.648438 114.574219 233.875 112.894531 231.625 C 120.3125 228.152344 122.199219 222.914062 122.199219 222.914062 C 101.441406 226.652344 93.617188 222.234375 83.546875 222.914062 C 73.472656 223.597656 64.691406 231.40625 64.691406 231.40625 C 77.957031 229.859375 89.09375 234.054688 89.09375 234.054688 C 97.75 235.175781 104.21875 234.523438 109.03125 233.082031 C 108.671875 236.71875 109.5625 240.003906 110.597656 242.433594 C 97.664062 243.609375 90.074219 239.402344 83.554688 239.234375 C 76.710938 239.0625 67.128906 245.234375 67.128906 245.234375 L 83.554688 244.417969 L 90.058594 247.222656 L 105.542969 249.609375 L 116.25 248.714844 L 115.53125 247.460938 L 134.46875 253.007812 C 134.46875 253.007812 133.613281 260.667969 133.449219 260.902344 C 133.277344 261.148438 133.316406 273.714844 133.316406 273.714844 C 136.414062 259.710938 159.476562 247.222656 159.476562 247.222656 C 154.53125 248.769531 146.519531 252.179688 146.519531 252.179688 Z M 244.15625 225.125 C 238.339844 224.789062 230.578125 225.980469 230.578125 225.980469 L 230.578125 216.28125 C 217.816406 225.808594 216.484375 238.742188 216.484375 238.742188 L 213.902344 234.625 C 201.488281 249.742188 152.460938 260.347656 152.460938 260.347656 L 161.84375 262.386719 C 147.890625 270.71875 143.085938 287.792969 143.085938 287.792969 L 154.191406 277.011719 L 180.902344 264.085938 L 213.566406 245.03125 L 223.4375 255.234375 C 223.4375 255.234375 223.609375 245.875 223.4375 245.203125 C 223.265625 244.519531 229.222656 234.273438 229.222656 234.273438 L 252.363281 230.519531 L 265.527344 225.722656 C 268.910156 223.117188 270.054688 216.28125 270.054688 216.28125 C 265.273438 221.230469 249.980469 225.460938 244.15625 225.125 Z M 269.234375 195.179688 C 278.960938 199.089844 278.21875 205.472656 278.21875 205.472656 C 267.15625 206.234375 260.1875 213.476562 260.1875 213.476562 C 268.355469 213.054688 276.179688 214.753906 286.425781 218.304688 C 296.671875 221.855469 307.503906 218.304688 307.503906 218.304688 C 307.503906 218.304688 291.824219 206.929688 284.683594 200.800781 C 277.535156 194.671875 269.234375 195.179688 269.234375 195.179688 Z M 203.546875 206.632812 C 219.632812 208.375 233.472656 197.054688 233.472656 197.054688 L 228.632812 192.027344 L 237.054688 191.046875 L 236.882812 183.273438 C 243.667969 193.335938 260.070312 194.207031 260.070312 194.207031 C 242.195312 185.160156 244.164062 173.238281 244.164062 173.238281 L 224.464844 171.191406 L 228.546875 185.992188 L 220.550781 187.699219 L 223.273438 195.164062 C 220.207031 203.835938 203.546875 206.632812 203.546875 206.632812 Z M 124.082031 209.117188 C 124.082031 209.117188 139 204.171875 147.105469 209.542969 L 142.746094 192.113281 C 142.746094 192.113281 121.675781 198.03125 116.242188 209.109375 C 116.242188 209.109375 126.976562 202.25 135.308594 201.472656 C 135.308594 201.472656 126.800781 206.210938 124.082031 209.117188 Z M 124.082031 209.117188 " fill-opacity="1" fill-rule="nonzero"/><path fill="#484670" d="M 209.65625 66.5625 L 203 62.742188 C 207.058594 49.054688 221.398438 41.554688 221.398438 41.554688 C 220.207031 45.128906 219.078125 48.867188 219.078125 48.867188 C 227.433594 42.140625 235.664062 30.773438 235.664062 30.773438 C 232.929688 58.28125 209.65625 66.5625 209.65625 66.5625 Z M 225.363281 85.328125 C 225.363281 85.328125 206.566406 91.90625 181.128906 114.363281 L 186.828125 115.730469 C 186.828125 115.730469 141.203125 129.566406 134.171875 124.125 L 124.773438 135.46875 L 114.441406 138.1875 L 116.933594 143.667969 C 116.933594 143.667969 134.054688 142.046875 152.148438 136.148438 C 170.238281 130.253906 206.566406 131.382812 206.566406 131.382812 C 206.566406 131.382812 196.964844 127.980469 186.097656 127.300781 C 186.097656 127.300781 207.15625 123.214844 216.484375 125.035156 C 225.8125 126.84375 251.894531 141.613281 251.894531 141.613281 C 251.894531 141.613281 226.367188 110.007812 226.769531 109.355469 C 227.175781 108.703125 228.757812 89.421875 228.757812 89.421875 Z M 136.859375 146.710938 C 136.859375 146.710938 162.234375 146.585938 172.480469 150.441406 C 182.726562 154.296875 212.894531 162.851562 234.214844 162.773438 C 234.214844 162.773438 204.953125 156.5625 199.738281 152.933594 C 199.738281 152.933594 245.949219 158.578125 261.214844 155.652344 C 261.214844 155.652344 250.027344 153.414062 244.164062 148.746094 C 244.164062 148.746094 221.96875 147.738281 212.21875 146.703125 C 202.464844 145.667969 180.917969 141.808594 179.097656 141.808594 C 177.277344 141.808594 154.292969 141.613281 136.859375 146.710938 Z M 313.832031 179.242188 C 312.207031 178.332031 298.859375 182.871094 298.859375 182.871094 L 262.789062 193.390625 L 275.488281 195.171875 L 288.871094 200.832031 C 288.871094 200.832031 327.203125 190.140625 335.144531 187.707031 C 343.085938 185.277344 356.46875 173.238281 356.46875 173.238281 L 353.199219 173.980469 C 338.816406 181.421875 329.09375 179.617188 329.09375 179.617188 C 313.746094 178.558594 315.453125 180.152344 313.832031 179.242188 Z M 49.953125 189.011719 C 49.953125 189.011719 33.757812 191.371094 20.449219 189.621094 C 20.449219 189.621094 23.246094 198.144531 38.664062 200.832031 C 54.085938 203.519531 64.691406 205.472656 64.691406 205.472656 L 93.445312 214.636719 C 93.445312 214.636719 105.589844 212.597656 106.261719 212.144531 C 106.945312 211.6875 116.234375 206.820312 116.234375 206.820312 L 126.222656 197.398438 L 102.179688 186.964844 L 66.738281 186.398438 Z M 49.953125 189.011719 " fill-opacity="1" fill-rule="nonzero"/><path fill="#cdd3ed" d="M 235.664062 30.773438 C 235.664062 30.773438 202.222656 48.585938 177.382812 53.6875 C 177.382812 53.6875 167.972656 94.007812 164.910156 98.230469 C 161.84375 102.457031 137.886719 122.535156 137.886719 122.535156 L 155.039062 98.230469 L 169.503906 48.664062 Z M 101.734375 153.835938 L 82.449219 160.183594 L 57.269531 171.183594 C 57.269531 171.183594 32.316406 182.863281 30.464844 183.089844 C 28.617188 183.320312 20.449219 189.605469 20.449219 189.605469 C 20.449219 189.605469 46.835938 181.046875 56.132812 178.324219 C 65.429688 175.605469 85.851562 165.84375 96.285156 161.085938 C 106.71875 156.320312 131.671875 148.820312 131.671875 148.820312 L 118.054688 151.089844 Z M 101.734375 153.835938 " fill-opacity="1" fill-rule="nonzero"/><path fill="#14142c" d="M 357.378906 170.375 C 353.378906 169.757812 348.996094 168.871094 343.636719 167.609375 L 343.636719 49.253906 L 323.722656 49.253906 C 295.503906 49.253906 267.140625 44.636719 239.40625 35.535156 C 240.09375 31.152344 240.101562 28.34375 240.101562 28.320312 L 240.148438 24.746094 L 236.753906 25.898438 C 236.558594 25.96875 231.605469 27.648438 224.234375 30.078125 C 206.175781 22.953125 195.597656 16.5 195.496094 16.4375 L 184.9375 9.859375 L 174.410156 16.421875 C 172.199219 17.769531 119.628906 49.253906 46.121094 49.253906 L 26.210938 49.253906 L 26.210938 182.535156 C 21.851562 184.394531 18.582031 185.78125 17.1875 186.375 C 16.730469 186.570312 16.472656 186.683594 16.449219 186.691406 L 13.34375 187.992188 L 15.46875 190.601562 C 15.609375 190.78125 19.035156 195.007812 26.210938 198.964844 L 26.210938 216.949219 L 26.570312 219.082031 C 26.789062 220.203125 32.191406 246.917969 53.976562 277.859375 C 73.667969 305.832031 111.359375 343.503906 179.121094 364.121094 L 184.921875 365.894531 L 190.714844 364.121094 C 258.453125 343.503906 296.167969 305.832031 315.875 277.859375 C 337.035156 247.8125 342.695312 221.925781 343.273438 219.066406 L 343.621094 217.253906 L 343.636719 186.226562 C 349.1875 182.894531 354.148438 179.109375 358.789062 174.65625 L 362.433594 171.152344 Z M 199.222656 38.136719 C 192.0625 34.640625 187.546875 31.976562 186.324219 31.230469 C 186.300781 31.214844 186.277344 31.199219 186.261719 31.191406 L 184.921875 30.34375 L 183.589844 31.191406 C 181.238281 32.640625 125.085938 66.648438 46.121094 66.648438 L 43.597656 66.648438 L 43.597656 175.0625 C 39.253906 176.945312 35.027344 178.773438 31.25 180.386719 L 31.25 54.300781 L 46.121094 54.300781 C 121.363281 54.300781 174.800781 22.097656 177.050781 20.726562 L 184.929688 15.824219 L 192.839844 20.742188 C 192.925781 20.796875 201.371094 26.03125 216.820312 32.523438 C 212.015625 34.082031 205.601562 36.152344 199.222656 38.136719 Z M 177.277344 176.570312 L 179.945312 180.050781 C 184.773438 186.375 190.371094 189.582031 196.585938 189.582031 L 196.71875 189.582031 C 208.988281 189.488281 218.796875 176.875 219.878906 175.433594 L 221.203125 173.636719 L 221.828125 173.683594 C 223.765625 177.1875 225.082031 181.617188 225.796875 184.441406 L 216.089844 185.316406 L 220.378906 194.589844 C 210.40625 207.800781 192.355469 200.511719 191.59375 200.1875 L 190.933594 199.90625 L 190.238281 200.015625 C 184.523438 200.894531 176.902344 203.339844 172.027344 205.042969 C 173.988281 199.960938 176.140625 194.144531 176.589844 192.167969 C 177.351562 188.703125 174.777344 180.253906 173.972656 177.746094 L 173.539062 176.40625 L 147.441406 169.9375 L 147.75 168.457031 L 152.335938 168.714844 C 164.117188 169.410156 176.078125 170.25 187.644531 171.058594 L 208.085938 172.617188 Z M 160.832031 188.695312 C 165.628906 188.695312 168.765625 186.777344 170.71875 184.800781 C 171.613281 188.460938 171.792969 190.429688 171.652344 191.070312 C 171.359375 192.390625 169.714844 196.984375 167.207031 203.496094 C 166.84375 202.691406 166.59375 202.03125 166.46875 201.703125 L 165.785156 199.757812 L 163.78125 200 C 159.523438 200.503906 153.292969 202.625 149.519531 204.015625 L 143.554688 188.773438 L 145.640625 178.648438 C 150.171875 185.285156 155.273438 188.664062 160.832031 188.695312 Z M 108.6875 213.617188 C 111.453125 212.519531 113.789062 211.460938 116.039062 210.292969 L 116.46875 210.066406 L 116.847656 209.613281 C 118.6875 207.324219 120.34375 205.652344 122.050781 204.34375 C 124.285156 202.636719 126.363281 201.316406 128.417969 200.320312 C 130.707031 199.183594 133.089844 198.222656 135.503906 197.453125 C 137.386719 196.863281 139.21875 196.394531 140.976562 196.058594 L 146.652344 210.574219 L 148.988281 209.636719 L 149.082031 209.605469 C 150.484375 209.054688 157.484375 206.367188 162.488281 205.339844 C 163.113281 206.765625 164.195312 208.960938 165.636719 210.867188 L 166.78125 212.363281 L 168.570312 211.671875 C 169.957031 211.148438 182.257812 206.507812 190.347656 205.113281 C 194.730469 206.6875 214.515625 212.621094 225.378906 196.253906 L 226.148438 195.070312 L 223.664062 189.691406 L 231.886719 188.949219 L 231.363281 186.15625 C 231.03125 184.535156 229.855469 179.171875 227.644531 174.117188 L 241.859375 175.199219 C 244.242188 193.226562 259.082031 195.390625 272.195312 197.296875 C 272.871094 197.398438 273.546875 197.492188 274.210938 197.59375 L 274.398438 197.617188 C 275.121094 197.71875 275.851562 197.875 276.398438 197.984375 C 281.628906 199.335938 284.347656 205.621094 285.28125 208.285156 C 276.5 206.976562 266.804688 210.433594 266.378906 210.589844 L 259.953125 212.917969 L 266.742188 212.105469 C 266.851562 212.089844 277.832031 210.835938 286.054688 215.082031 C 292.78125 218.570312 301.757812 219.050781 305.632812 219.089844 C 299.78125 224.648438 292.53125 224.695312 286.078125 224.742188 L 285.960938 224.742188 C 283.054688 224.765625 280.308594 224.789062 277.871094 225.3125 C 273.757812 226.207031 269.84375 225.824219 266.96875 225.226562 C 267.832031 224.136719 268.488281 222.953125 268.933594 221.699219 L 269.570312 219.890625 L 267.847656 220.734375 C 253.875 227.625 244.617188 228.042969 237.054688 227.902344 C 231.714844 227.789062 228.476562 229.242188 226.722656 230.433594 C 227.082031 228.144531 227.527344 225.800781 227.535156 225.769531 L 228.070312 222.992188 L 226.179688 225.09375 C 217.785156 234.445312 218.488281 243.886719 219.832031 249.003906 C 219.171875 248.140625 218.578125 247.253906 218.058594 246.363281 C 217.488281 245.40625 216.9375 244.332031 216.554688 243.414062 L 215.078125 239.878906 L 214.304688 240.347656 C 214.054688 240.5 189.1875 255.363281 169.09375 258.699219 L 165.667969 259.273438 L 169.007812 260.230469 C 169.171875 260.277344 171.652344 260.980469 174.496094 261.445312 C 166.632812 263.734375 152.710938 269.878906 143.257812 285.886719 C 143.226562 285.792969 143.203125 285.707031 143.171875 285.613281 C 142.667969 283.925781 142.300781 282.40625 142.042969 280.964844 C 141.757812 279.429688 141.539062 277.820312 141.390625 276.175781 C 141.242188 274.527344 141.171875 272.875 141.1875 271.410156 L 141.273438 265.734375 L 134.117188 271.964844 C 134.125 271.839844 134.132812 271.714844 134.140625 271.597656 C 134.265625 269.480469 134.476562 267.628906 134.796875 265.953125 C 135.191406 263.945312 135.667969 262.171875 136.257812 260.558594 C 136.625 259.601562 136.945312 258.804688 137.347656 258.027344 C 137.542969 257.617188 137.769531 257.21875 137.964844 256.875 C 138.167969 256.523438 138.445312 256.105469 138.59375 255.910156 L 140.921875 252.890625 C 140.984375 252.820312 147.472656 245.460938 160.078125 240.648438 L 163.558594 239.316406 L 159.835938 239.125 C 159.507812 239.109375 153.394531 238.828125 147.394531 239.917969 C 149.574219 238.695312 152.34375 237.378906 155.03125 236.757812 L 160.472656 235.511719 L 154.898438 235.214844 C 154.371094 235.183594 141.902344 234.585938 132.15625 239.902344 C 123.070312 244.871094 112.738281 236.992188 112.636719 236.90625 L 110.339844 235.128906 L 111.429688 237.824219 C 111.546875 238.105469 113.867188 243.726562 119.027344 246.730469 C 117.441406 246.667969 115.578125 246.457031 114 245.867188 L 113.804688 245.796875 L 112.839844 245.953125 C 107.925781 246.730469 104.003906 247.019531 100.5 246.863281 C 96.105469 246.660156 92.363281 245.625 89.363281 243.757812 C 89.101562 243.609375 88.851562 243.445312 88.609375 243.273438 C 88.460938 243.171875 88.304688 243.0625 88.164062 242.976562 C 87.488281 242.519531 86.726562 242.152344 86.039062 241.949219 C 84.582031 241.484375 83.238281 241.40625 82.109375 241.390625 C 79.546875 241.359375 77.164062 241.785156 75.15625 242.191406 C 73.292969 242.589844 71.371094 243.085938 69.339844 243.703125 L 69.511719 243.515625 C 69.648438 243.375 69.78125 243.234375 69.914062 243.09375 C 70.117188 242.882812 70.320312 242.660156 70.5 242.488281 L 70.894531 242.144531 C 71.503906 241.605469 72.085938 241.09375 72.742188 240.632812 C 74.289062 239.488281 75.980469 238.507812 77.769531 237.722656 C 78.769531 237.292969 79.671875 236.945312 80.527344 236.664062 C 81.382812 236.382812 82.386719 236.117188 83.261719 235.953125 L 89.09375 234.839844 C 101.675781 236.226562 115.371094 227.933594 115.953125 227.578125 L 120.953125 224.507812 L 115.316406 226.152344 C 109.664062 227.804688 94.914062 228.472656 83.625 226.898438 C 76.027344 225.832031 69.898438 227.925781 66.683594 229.421875 C 66.808594 229.234375 66.933594 229.054688 67.066406 228.871094 C 68.367188 227.09375 70.046875 225.476562 72.054688 224.082031 C 75.683594 221.589844 80.199219 219.84375 85.457031 218.878906 C 86.65625 218.683594 87.894531 218.484375 89.128906 218.390625 L 91.527344 218.148438 C 92.050781 218.09375 92.59375 218.046875 93.109375 217.953125 C 95.523438 217.625 98.125 217.050781 101.050781 216.21875 C 103.558594 215.507812 106.113281 214.636719 108.6875 213.617188 Z M 76.214844 247.128906 C 78.574219 246.644531 80.449219 246.425781 82.078125 246.441406 C 83.082031 246.449219 83.898438 246.558594 84.542969 246.769531 C 84.847656 246.855469 85.066406 246.980469 85.308594 247.136719 C 85.472656 247.246094 85.636719 247.351562 85.796875 247.460938 C 86.125 247.679688 86.445312 247.898438 86.773438 248.085938 C 88.875 249.355469 91.09375 250.304688 93.367188 250.886719 C 95.507812 251.441406 97.765625 251.769531 100.28125 251.90625 C 103.949219 252.070312 107.761719 251.816406 112.597656 251.089844 C 113.21875 251.527344 113.835938 251.914062 114.558594 252.351562 C 115.65625 252.976562 116.597656 253.457031 117.519531 253.871094 C 119.746094 254.859375 121.800781 255.566406 123.792969 256.019531 C 126.292969 256.601562 128.371094 256.90625 130.289062 256.992188 C 130.941406 257.054688 131.59375 257.0625 132.234375 257.0625 C 132.007812 257.578125 131.78125 258.152344 131.53125 258.8125 C 130.824219 260.714844 130.273438 262.746094 129.84375 265.011719 C 129.484375 266.925781 129.242188 268.984375 129.097656 271.320312 C 129.058594 272.027344 129.050781 272.726562 129.035156 273.421875 C 129.027344 273.769531 129.027344 274.105469 129.019531 274.496094 L 129.28125 282.871094 L 136.367188 276.691406 C 136.523438 278.378906 136.757812 280.078125 137.078125 281.882812 C 137.363281 283.480469 137.777344 285.183594 138.339844 287.078125 C 138.8125 288.664062 139.453125 290.324219 140.292969 292.152344 L 141.964844 295.8125 L 144.542969 292.652344 C 146.667969 290.042969 149.050781 287.398438 151.636719 284.789062 C 154.429688 281.984375 156.992188 279.710938 159.484375 277.835938 C 161.035156 276.691406 162.351562 275.78125 163.726562 275.039062 L 164.777344 274.464844 L 165.960938 273.964844 C 166.398438 273.753906 166.945312 273.554688 167.488281 273.367188 C 167.777344 273.265625 168.066406 273.164062 168.328125 273.0625 C 169.203125 272.757812 170.082031 272.449219 170.960938 272.144531 C 173.46875 271.273438 176.0625 270.367188 178.613281 269.417969 C 181.660156 268.273438 185.265625 266.894531 188.820312 265.269531 C 190.003906 264.761719 191.179688 264.1875 192.316406 263.632812 C 192.816406 263.390625 193.324219 263.136719 193.859375 262.878906 C 194.328125 262.628906 194.808594 262.378906 195.285156 262.132812 C 196.429688 261.539062 197.621094 260.917969 198.734375 260.238281 C 201.824219 258.503906 204.875 256.441406 208.054688 253.949219 C 209.945312 252.460938 211.8125 250.734375 213.621094 248.808594 C 213.644531 248.855469 213.675781 248.894531 213.699219 248.941406 C 214.359375 250.070312 215.121094 251.191406 215.957031 252.265625 C 216.757812 253.324219 217.667969 254.34375 218.632812 255.296875 C 219.632812 256.316406 220.730469 257.179688 221.710938 257.910156 L 225.175781 260.558594 L 225.765625 256.199219 C 226.289062 252.3125 227.238281 246.582031 229.433594 241.667969 C 229.972656 240.464844 230.523438 239.488281 231.109375 238.671875 C 231.761719 237.761719 232.46875 237.066406 233.203125 236.632812 C 233.335938 236.539062 233.488281 236.46875 233.691406 236.390625 L 233.800781 236.34375 C 233.886719 236.304688 234.003906 236.273438 234.128906 236.242188 C 234.238281 236.210938 234.355469 236.179688 234.410156 236.15625 C 234.5625 236.117188 234.71875 236.070312 234.867188 236.023438 C 235 235.984375 235.132812 235.945312 235.210938 235.921875 L 236.152344 235.730469 C 236.628906 235.621094 237.132812 235.542969 237.664062 235.464844 L 237.960938 235.417969 C 238.425781 235.339844 238.910156 235.277344 239.390625 235.214844 L 241.671875 234.933594 C 246.351562 234.367188 251.1875 233.789062 255.84375 232.171875 C 257.921875 231.492188 260.0625 230.488281 262.203125 229.179688 C 263.582031 229.65625 267.648438 230.902344 272.730469 230.902344 C 274.855469 230.902344 276.929688 230.683594 278.90625 230.261719 C 280.921875 229.828125 283.554688 229.8125 286.09375 229.796875 C 290.617188 229.765625 295.714844 229.726562 300.722656 227.933594 C 300.800781 228.207031 300.855469 228.472656 300.902344 228.738281 C 301.085938 229.78125 301.117188 230.824219 300.988281 231.8125 C 300.972656 231.914062 300.957031 232.015625 300.949219 232.117188 C 300.933594 232.265625 300.910156 232.421875 300.871094 232.605469 L 300.800781 232.941406 C 300.785156 232.996094 300.769531 233.058594 300.746094 233.167969 C 300.722656 233.207031 300.707031 233.253906 300.683594 233.308594 L 300.527344 233.566406 C 300.488281 233.640625 300.417969 233.726562 300.347656 233.8125 C 300.269531 233.914062 300.183594 234.023438 300.152344 234.070312 C 299.476562 234.917969 298.613281 235.769531 297.730469 236.632812 C 295.917969 238.359375 293.925781 240.035156 291.992188 241.660156 C 289.867188 243.4375 287.757812 245.140625 285.976562 246.574219 C 284.019531 248.148438 282.050781 249.71875 280.074219 251.292969 C 273.984375 256.144531 267.679688 261.164062 261.683594 266.476562 C 260.585938 267.457031 259.621094 268.34375 258.738281 269.175781 C 258.085938 269.785156 257.433594 270.4375 256.808594 271.070312 C 256.503906 271.375 256.203125 271.683594 255.90625 271.972656 C 253.945312 273.949219 251.894531 275.851562 250.332031 277.296875 C 246.484375 280.847656 242.46875 284.3125 238.683594 287.566406 C 234.90625 290.785156 230.867188 294.210938 226.753906 297.574219 C 224.949219 299.082031 223.074219 300.570312 221.265625 302.003906 L 219.683594 303.234375 C 218.003906 304.519531 216.265625 305.855469 214.445312 306.984375 C 214.445312 306.984375 220.269531 305.972656 222.292969 304.820312 C 223.570312 304.089844 224.683594 303.40625 225.6875 302.757812 C 226.785156 302.074219 227.914062 301.363281 229.011719 300.617188 C 233.328125 297.722656 237.632812 294.605469 241.78125 291.351562 C 245.675781 288.324219 249.652344 285.023438 253.921875 281.269531 C 255.804688 279.609375 257.820312 277.804688 259.773438 275.921875 C 260.109375 275.601562 260.429688 275.289062 260.75 274.984375 C 261.363281 274.394531 261.949219 273.832031 262.578125 273.265625 C 263.394531 272.503906 264.292969 271.691406 265.414062 270.710938 C 270.371094 266.453125 275.613281 262.269531 280.6875 258.230469 C 283.625 255.886719 286.660156 253.472656 289.664062 251.011719 C 293.480469 247.875 297.429688 244.644531 301.148438 241.03125 C 297.085938 248.558594 289.449219 260.402344 278.058594 268.90625 L 291.960938 263.695312 C 287.992188 270.742188 274.375 293.320312 254.949219 307.945312 C 234.8125 322.738281 211.246094 334.339844 184.898438 342.449219 C 123.761719 323.648438 89.980469 290.019531 72.398438 265.105469 C 69.214844 260.582031 66.222656 255.878906 63.492188 251.097656 L 64.277344 250.789062 C 68.519531 249.152344 72.523438 247.921875 76.214844 247.128906 Z M 31.25 201.378906 C 35.113281 202.980469 39.253906 204.132812 43.597656 204.820312 L 43.597656 215.28125 L 43.644531 215.757812 C 43.824219 216.722656 48.332031 239.644531 68.1875 267.855469 C 86.3125 293.601562 121.15625 328.3125 184.179688 347.496094 L 184.914062 347.722656 L 185.644531 347.496094 C 248.671875 328.3125 283.507812 293.601562 301.640625 267.855469 C 321.214844 240.050781 326.003906 216.746094 326.199219 215.734375 L 326.234375 193.25 C 327.402344 192.992188 328.632812 192.679688 329.832031 192.375 L 331.054688 192.003906 C 332.324219 191.589844 333.632812 191.164062 334.863281 190.632812 C 336.085938 190.148438 337.308594 189.605469 338.570312 188.988281 L 338.570312 216.722656 L 338.296875 218.117188 C 338.078125 219.207031 332.769531 245.070312 311.730469 274.976562 C 292.476562 302.304688 255.59375 339.125 189.226562 359.316406 L 184.898438 360.640625 L 180.5625 359.316406 C 114.164062 339.101562 77.3125 302.296875 58.082031 274.976562 C 36.855469 244.808594 31.710938 219.214844 31.507812 218.140625 L 31.234375 216.730469 L 31.234375 201.378906 Z M 329.675781 187.144531 L 328.882812 187.402344 L 327.957031 187.636719 C 326.820312 187.929688 325.746094 188.203125 324.515625 188.445312 C 319.214844 189.574219 313.601562 190.96875 306.320312 192.960938 C 300.824219 194.464844 295.164062 196.121094 289.503906 197.867188 C 285.171875 195.179688 280.339844 193.414062 275.152344 192.640625 C 274.761719 192.578125 274.367188 192.523438 273.96875 192.460938 L 273.261719 192.359375 C 279.394531 190.820312 288.839844 188.695312 294.742188 188.484375 C 304.007812 188.15625 315.40625 181.125 317.054688 180.089844 C 321.527344 180.253906 329.210938 178.84375 329.210938 178.84375 C 309.605469 175.925781 289.585938 174.203125 270.222656 172.53125 C 266.371094 172.203125 262.523438 171.867188 258.667969 171.527344 C 236.898438 169.71875 214.75 168.054688 193.332031 166.441406 L 188.011719 166.042969 C 176.023438 165.109375 164.296875 164.214844 152.640625 163.429688 L 148.203125 163.148438 L 143.6875 162.9375 C 140.636719 162.890625 137.558594 163.007812 134.523438 163.304688 C 128.207031 163.972656 122.191406 165.289062 116.660156 167.210938 C 113.765625 168.195312 110.914062 169.402344 108.160156 170.800781 L 106.113281 171.890625 L 104.125 173.058594 C 103.566406 173.394531 103.027344 173.753906 102.476562 174.109375 L 102.164062 174.3125 C 101.914062 174.476562 101.71875 174.59375 101.511719 174.71875 L 101.285156 174.851562 C 101.089844 174.984375 100.847656 175.117188 100.492188 175.292969 C 98.078125 176.5625 95.304688 177.480469 92.6875 178.300781 C 89.753906 179.195312 86.789062 179.964844 84.289062 180.605469 C 76.78125 182.464844 69.042969 184.109375 61.554688 185.703125 C 57.636719 186.53125 53.703125 187.371094 49.773438 188.242188 C 49.773438 188.242188 61.0625 189.058594 67.617188 188.234375 C 69.160156 188.5625 83.835938 191.621094 94.792969 191.824219 C 103.925781 192.003906 115.191406 197.953125 119.136719 200.210938 C 119.066406 200.265625 119.003906 200.3125 118.933594 200.371094 C 117.027344 201.828125 115.222656 203.628906 113.257812 206.035156 C 108.898438 208.230469 104.335938 210.027344 99.695312 211.367188 C 97.695312 211.933594 95.914062 212.355469 94.253906 212.652344 C 89.566406 210.660156 68.007812 201.890625 48.589844 200.328125 C 34.621094 199.199219 25.753906 193.148438 21.898438 189.855469 C 33.171875 185.074219 65.117188 171.441406 77.414062 165.296875 C 91.164062 158.421875 114.039062 152.855469 116.667969 152.226562 L 118.941406 151.695312 L 117.222656 140.359375 C 119.574219 140.226562 126.441406 139.710938 135.449219 137.9375 C 146.21875 135.8125 158.792969 130.679688 160.191406 130.097656 C 160.191406 130.097656 139.886719 133.601562 129.414062 134.050781 C 133.851562 128.710938 154.546875 103.71875 157.117188 98.890625 C 159.789062 93.882812 170.199219 56.089844 171.539062 51.203125 C 186.546875 47.972656 223.914062 35.550781 234.488281 32 C 228.09375 52.710938 214.335938 59.554688 209.214844 61.433594 L 217.621094 48.15625 L 203.375 61.316406 L 201.972656 62.625 L 203.289062 64.585938 L 225.890625 90.289062 C 222.066406 92.234375 206.816406 100.246094 190.050781 112.710938 L 186.339844 115.460938 L 190.964844 114.019531 C 193.40625 113.242188 199.902344 111.214844 205.15625 109.863281 C 199.082031 113.0625 189.242188 118.441406 184.453125 122.242188 L 181.285156 124.777344 L 185.210938 123.589844 C 188.292969 122.667969 215.425781 114.632812 226.785156 115.453125 L 250.542969 142.140625 L 251.75 142.375 C 253.46875 142.703125 255.398438 143.167969 257.472656 143.761719 C 259.339844 144.296875 261.207031 144.929688 263.03125 145.660156 C 265.015625 146.449219 266.679688 147.273438 268.113281 148.175781 C 269.90625 149.3125 271.136719 150.402344 271.890625 151.507812 L 272.394531 152.242188 L 273.214844 152.511719 C 287.28125 157.027344 301.171875 161.257812 314.488281 165.09375 C 321.332031 167.066406 328.347656 168.972656 335.347656 170.769531 C 340.46875 172.070312 345.941406 173.402344 351.46875 174.453125 C 348.160156 177.242188 344.640625 179.769531 340.96875 181.945312 C 338.367188 183.515625 335.695312 184.855469 332.988281 185.945312 C 331.90625 186.414062 330.769531 186.792969 329.675781 187.144531 Z M 338.585938 166.378906 C 338.351562 166.316406 338.109375 166.261719 337.875 166.199219 L 336.589844 165.875 C 333.171875 165 329.691406 164.074219 326.25 163.140625 L 326.25 66.648438 L 323.722656 66.648438 C 293.753906 66.648438 263.753906 61.828125 234.542969 52.316406 C 236.175781 48.632812 237.484375 44.683594 238.449219 40.535156 C 266.503906 49.667969 295.1875 54.300781 323.722656 54.300781 L 338.59375 54.300781 L 338.59375 166.378906 Z M 145.46875 306.96875 C 149.644531 308.628906 154.292969 309.875 159.273438 310.667969 C 162.566406 311.167969 165.800781 311.417969 168.945312 311.417969 C 170.914062 311.417969 172.851562 311.324219 174.746094 311.121094 C 180.148438 310.558594 185.242188 309.21875 189.890625 307.140625 C 195.050781 304.84375 199.886719 302.136719 203.523438 300.039062 C 207.414062 297.773438 211.542969 295.230469 216.5 292.042969 C 220.652344 289.367188 224.910156 286.53125 229.152344 283.613281 C 238.386719 277.242188 246.453125 271.433594 253.8125 265.851562 L 271.6875 252.3125 L 251.28125 261.609375 C 248.074219 263.066406 244.53125 264.636719 240.433594 266.414062 C 236.960938 267.925781 233.234375 269.542969 229.519531 271.109375 C 223.089844 273.808594 215.449219 276.980469 207.523438 280.085938 C 198.609375 283.558594 191.742188 286.097656 185.25 288.316406 C 176.488281 291.328125 169.265625 293.484375 162.535156 295.097656 L 200.703125 291.625 C 193.734375 296.628906 171.753906 310.210938 144.902344 305.078125 L 138.347656 303.824219 L 144.433594 306.558594 C 144.441406 306.550781 144.808594 306.714844 145.46875 306.96875 Z M 175.359375 235.035156 L 175.515625 235.074219 L 175.679688 235.042969 C 176.761719 234.847656 202.253906 230.0625 212.871094 213.804688 L 214.929688 210.636719 L 211.78125 212.722656 C 211.703125 212.769531 205.03125 217.160156 197.582031 220.117188 C 199.363281 218.117188 202.035156 215.335938 204.121094 214.039062 L 206.972656 212.269531 L 203.625 212.597656 C 202.417969 212.714844 173.910156 215.5625 160.292969 223.148438 L 157.226562 224.859375 L 160.730469 224.617188 C 160.816406 224.609375 167.566406 224.152344 173.40625 224.515625 C 168.273438 225.738281 159.242188 227.398438 152.296875 226.058594 L 146.941406 225.023438 L 151.785156 227.523438 C 152.066406 227.65625 158.863281 231.113281 175.359375 235.035156 Z M 93.484375 272.8125 C 97.027344 276.199219 100.996094 279.59375 105.269531 282.894531 C 109.539062 286.160156 113.875 289.085938 118.15625 291.601562 C 123.273438 294.558594 127.898438 296.714844 132.304688 298.1875 L 137.542969 299.941406 L 133.003906 296.800781 C 128.777344 293.875 124.648438 291 120.492188 288.011719 C 116.570312 285.09375 112.402344 281.992188 108.339844 278.894531 L 96.277344 269.574219 C 92.449219 266.59375 88.320312 263.40625 84.023438 260.292969 L 79.515625 257.023438 L 82.949219 261.40625 C 85.78125 265.050781 89.136719 268.679688 93.484375 272.8125 Z M 217.417969 144.695312 C 215.363281 144.4375 213.308594 144.207031 211.253906 143.972656 C 208.886719 143.707031 206.433594 143.425781 204.035156 143.113281 L 201.824219 142.835938 C 198.171875 142.382812 194.398438 141.917969 190.699219 141.339844 C 189.570312 141.191406 188.496094 141.019531 187.351562 140.839844 C 186.269531 140.664062 185.179688 140.484375 184.035156 140.335938 C 183.621094 140.289062 183.214844 140.226562 182.796875 140.171875 C 182.070312 140.070312 181.316406 139.960938 180.5625 139.90625 L 177.082031 139.65625 C 172.300781 139.511719 167.660156 139.679688 163.285156 140.148438 C 159.164062 140.554688 154.734375 141.261719 149.746094 142.320312 C 144.527344 143.488281 140.605469 145.394531 136.851562 146.726562 C 136.851562 146.726562 146.359375 145.988281 150.296875 145.542969 C 154.742188 144.992188 159.226562 144.609375 163.59375 144.40625 C 167.511719 144.257812 172.144531 144.152344 176.792969 144.507812 L 180.085938 144.8125 C 180.777344 144.875 181.480469 144.984375 182.171875 145.085938 C 182.546875 145.148438 182.921875 145.203125 183.300781 145.257812 C 184.367188 145.410156 185.488281 145.605469 186.578125 145.792969 C 187.699219 145.988281 188.859375 146.183594 189.988281 146.347656 C 193.914062 146.921875 198.085938 147.414062 203.546875 147.964844 C 207.96875 148.347656 212.539062 148.746094 217.039062 148.984375 C 224.558594 149.414062 231.410156 149.632812 237.789062 149.632812 C 239.96875 149.632812 242.078125 148.828125 244.15625 148.769531 C 244.15625 148.769531 226.996094 145.816406 218.585938 144.851562 Z M 217.417969 144.695312 " fill-opacity="1" fill-rule="nonzero"/></svg>