<svg xmlns="http://www.w3.org/2000/svg" xmlns:xlink="http://www.w3.org/1999/xlink" width="500" zoomAndPan="magnify" viewBox="0 0 375 374.999991" height="500" preserveAspectRatio="xMidYMid meet" version="1.0"><defs><clipPath id="ca066697a5"><path d="M 86.144531 86.511719 L 288.644531 86.511719 L 288.644531 288.261719 L 86.144531 288.261719 Z M 86.144531 86.511719 " clip-rule="nonzero"/></clipPath></defs><rect x="-37.5" width="450" fill="#ffffff" y="-37.499999" height="449.999989" fill-opacity="1"/><rect x="-37.5" width="450" fill="#14142c" y="-37.499999" height="449.999989" fill-opacity="1"/><g clip-path="url(#ca066697a5)"><path fill="#484670" d="M 180.929688 287.027344 C 143.054688 275.5 121.941406 254.378906 110.902344 238.691406 C 98.613281 221.234375 95.535156 206 95.410156 205.359375 L 95.152344 203.898438 L 95.152344 195.570312 C 91.859375 193.460938 90.175781 191.425781 89.984375 191.183594 L 86.144531 186.476562 L 91.773438 184.117188 L 92.121094 183.96875 C 92.644531 183.746094 93.710938 183.296875 95.152344 182.679688 L 95.152344 108.800781 L 109.214844 108.800781 C 148.472656 108.800781 176.457031 92.046875 177.628906 91.332031 L 185.039062 86.722656 L 192.492188 91.363281 C 192.535156 91.390625 197.726562 94.539062 206.609375 98.128906 C 209.933594 97.027344 212.128906 96.28125 212.28125 96.230469 L 218.445312 94.136719 L 218.355469 100.597656 C 218.355469 100.617188 218.355469 101.222656 218.269531 102.261719 C 232.300781 106.601562 246.621094 108.804688 260.851562 108.804688 L 274.914062 108.804688 L 274.914062 174.089844 C 276.695312 174.476562 278.25 174.773438 279.726562 175 L 288.835938 176.410156 L 282.210938 182.785156 C 279.929688 184.972656 277.539062 186.875 274.914062 188.578125 L 274.914062 204.023438 L 274.65625 205.351562 C 274.324219 206.992188 271.109375 221.730469 259.167969 238.695312 C 248.117188 254.382812 226.992188 275.503906 189.125 287.03125 L 185.03125 288.28125 Z M 180.929688 287.027344 " fill-opacity="1" fill-rule="nonzero"/></g><path fill="#cdd3ed" d="M 269.398438 114.316406 L 269.398438 176.515625 C 268.859375 176.378906 268.3125 176.246094 267.769531 176.109375 C 265.777344 175.59375 263.789062 175.066406 261.800781 174.527344 L 261.800781 121.914062 L 260.851562 121.914062 C 244.265625 121.914062 227.6875 119.222656 211.550781 113.917969 C 212.738281 111.34375 213.484375 108.820312 213.953125 106.667969 C 229.359375 111.734375 245.132812 114.316406 260.851562 114.316406 Z M 266.785156 188.808594 C 265.984375 189.15625 265.140625 189.414062 264.304688 189.6875 C 263.472656 189.902344 262.597656 190.128906 261.796875 190.289062 L 261.796875 202.765625 L 261.785156 202.855469 C 261.679688 203.378906 259.144531 215.9375 248.441406 231.144531 C 238.578125 245.148438 219.621094 264.039062 185.308594 274.484375 L 185.03125 274.570312 L 184.757812 274.484375 C 150.441406 264.039062 131.484375 245.148438 121.625 231.144531 C 110.917969 215.9375 108.390625 203.378906 108.285156 202.855469 L 108.269531 202.675781 L 108.269531 196.59375 C 105.289062 196.15625 102.761719 195.359375 100.667969 194.429688 L 100.667969 203.492188 L 100.828125 204.304688 C 100.941406 204.898438 103.828125 219.058594 115.414062 235.515625 C 125.960938 250.5 146.164062 270.675781 182.546875 281.75 L 185.039062 282.507812 L 187.523438 281.75 C 223.902344 270.675781 244.113281 250.496094 254.664062 235.515625 C 266.238281 219.070312 269.128906 204.898438 269.242188 204.296875 L 269.402344 203.496094 L 269.402344 187.613281 C 268.550781 188.050781 267.679688 188.453125 266.785156 188.808594 Z M 189.582031 96.046875 L 185.03125 93.222656 L 180.503906 96.039062 C 179.277344 96.789062 150.214844 114.316406 109.210938 114.316406 L 100.664062 114.316406 L 100.664062 184.261719 C 102.949219 183.289062 105.570312 182.160156 108.265625 180.988281 L 108.265625 121.914062 L 109.214844 121.914062 C 153.011719 121.914062 184.21875 102.671875 184.527344 102.484375 L 185.03125 102.167969 L 185.539062 102.484375 C 185.566406 102.496094 188.164062 104.109375 192.808594 106.371094 C 196.578125 105.203125 200.382812 103.972656 203.691406 102.894531 C 194.851562 99.257812 189.8125 96.1875 189.582031 96.046875 Z M 189.582031 96.046875 " fill-opacity="1" fill-rule="nonzero"/><path fill="#69729b" d="M 183.648438 278.121094 C 148.300781 267.359375 128.714844 247.824219 118.515625 233.328125 C 107.347656 217.464844 104.664062 204.140625 104.554688 203.578125 L 104.472656 203.128906 L 104.472656 118.113281 L 109.21875 118.113281 C 151.816406 118.113281 182.214844 99.449219 182.515625 99.257812 L 185.039062 97.683594 L 187.558594 99.257812 C 187.859375 99.441406 218.257812 118.109375 260.851562 118.109375 L 265.597656 118.109375 L 265.597656 203.128906 L 265.511719 203.578125 C 265.40625 204.136719 262.722656 217.464844 251.554688 233.328125 C 241.351562 247.820312 221.769531 267.355469 186.421875 278.121094 L 185.039062 278.539062 Z M 183.648438 278.121094 " fill-opacity="1" fill-rule="nonzero"/><path fill="#484670" d="M 250.527344 213.667969 L 250.359375 213.957031 C 250.238281 214.175781 250.117188 214.308594 250 214.488281 C 249.507812 215.136719 248.992188 215.660156 248.476562 216.191406 C 246.386719 218.253906 244.175781 220.0625 241.960938 221.878906 C 237.539062 225.492188 233.007812 228.953125 228.734375 232.628906 C 228.207031 233.089844 227.683594 233.554688 227.171875 234.03125 C 226.652344 234.503906 226.175781 234.976562 225.640625 235.484375 C 224.597656 236.484375 223.527344 237.445312 222.457031 238.394531 C 220.300781 240.292969 218.105469 242.128906 215.847656 243.882812 C 213.59375 245.652344 211.28125 247.332031 208.898438 248.929688 C 208.304688 249.332031 207.699219 249.710938 207.089844 250.09375 C 206.488281 250.484375 205.875 250.851562 205.253906 251.210938 C 204.007812 251.921875 202.757812 252.632812 201.40625 253.128906 C 202.625 252.378906 203.738281 251.488281 204.867188 250.632812 C 205.980469 249.75 207.089844 248.867188 208.179688 247.957031 C 210.382812 246.164062 212.542969 244.320312 214.703125 242.484375 C 216.851562 240.632812 219.003906 238.78125 221.078125 236.867188 C 222.121094 235.90625 223.152344 234.9375 224.136719 233.945312 C 224.625 233.460938 225.140625 232.917969 225.667969 232.425781 C 226.195312 231.929688 226.730469 231.4375 227.269531 230.957031 C 231.582031 227.136719 236.101562 223.660156 240.523438 220.097656 C 241.628906 219.210938 242.734375 218.316406 243.816406 217.410156 C 244.894531 216.5 245.976562 215.59375 246.972656 214.640625 C 247.460938 214.167969 247.953125 213.683594 248.335938 213.199219 C 248.410156 213.082031 248.527344 212.957031 248.582031 212.855469 L 248.675781 212.707031 C 248.6875 212.667969 248.695312 212.652344 248.710938 212.625 C 248.726562 212.625 248.746094 212.503906 248.761719 212.445312 L 248.808594 212.222656 C 248.847656 212.074219 248.855469 211.917969 248.882812 211.773438 C 248.960938 211.167969 248.9375 210.558594 248.835938 209.953125 C 248.785156 209.652344 248.703125 209.359375 248.605469 209.070312 C 248.597656 209.058594 248.59375 209.042969 248.585938 209.027344 C 245.792969 210.132812 242.878906 210.160156 240.324219 210.175781 C 238.832031 210.183594 237.421875 210.203125 236.308594 210.4375 C 235.167969 210.6875 234.054688 210.78125 233.019531 210.78125 C 230.015625 210.78125 227.703125 209.972656 227.222656 209.789062 C 226.101562 210.488281 224.910156 211.085938 223.664062 211.492188 C 220.828125 212.476562 217.835938 212.75 215.011719 213.101562 C 214.660156 213.148438 214.304688 213.191406 213.960938 213.246094 C 213.621094 213.296875 213.273438 213.34375 212.949219 213.421875 L 212.449219 213.519531 C 212.292969 213.5625 212.140625 213.613281 211.984375 213.65625 C 211.84375 213.703125 211.648438 213.742188 211.550781 213.800781 C 211.425781 213.847656 211.316406 213.898438 211.199219 213.972656 C 210.738281 214.246094 210.3125 214.679688 209.945312 215.195312 C 209.574219 215.707031 209.261719 216.292969 208.988281 216.902344 C 207.886719 219.375 207.320312 222.21875 206.949219 224.957031 L 206.726562 226.609375 L 205.453125 225.644531 L 205.445312 225.632812 C 204.863281 225.199219 204.289062 224.75 203.785156 224.230469 C 203.269531 223.726562 202.789062 223.183594 202.359375 222.617188 C 201.917969 222.050781 201.515625 221.460938 201.152344 220.84375 C 201.035156 220.648438 200.925781 220.457031 200.820312 220.265625 C 199.773438 221.425781 198.644531 222.5 197.429688 223.464844 C 195.828125 224.71875 194.152344 225.871094 192.394531 226.859375 C 191.527344 227.386719 190.625 227.824219 189.738281 228.296875 C 188.832031 228.730469 187.933594 229.191406 187.015625 229.585938 C 185.1875 230.417969 183.324219 231.144531 181.457031 231.84375 C 179.589844 232.542969 177.703125 233.183594 175.847656 233.835938 C 175.402344 234.003906 174.898438 234.15625 174.507812 234.347656 L 173.882812 234.613281 L 173.269531 234.949219 C 172.453125 235.390625 171.671875 235.941406 170.90625 236.507812 C 169.378906 237.652344 167.941406 238.96875 166.570312 240.347656 C 165.207031 241.726562 163.875 243.1875 162.664062 244.675781 L 161.691406 245.867188 L 161.066406 244.492188 C 160.660156 243.605469 160.296875 242.703125 160.023438 241.777344 C 159.746094 240.855469 159.507812 239.921875 159.339844 238.984375 C 159.167969 238.042969 159.035156 237.105469 158.949219 236.15625 C 158.925781 235.886719 158.910156 235.617188 158.890625 235.339844 L 156.570312 237.367188 L 155.058594 238.683594 L 155 236.707031 L 154.949219 235.011719 C 154.960938 234.445312 154.957031 233.882812 154.988281 233.316406 C 155.058594 232.183594 155.175781 231.050781 155.386719 229.925781 C 155.601562 228.804688 155.894531 227.691406 156.292969 226.605469 C 156.484375 226.089844 156.695312 225.574219 156.945312 225.074219 C 156.382812 225.074219 155.816406 225.089844 155.25 225.039062 C 154.078125 224.988281 152.910156 224.78125 151.761719 224.515625 C 150.613281 224.25 149.496094 223.847656 148.414062 223.371094 C 147.875 223.125 147.351562 222.851562 146.832031 222.554688 C 146.429688 222.3125 146.054688 222.082031 145.660156 221.789062 C 143.429688 222.132812 141.15625 222.359375 138.84375 222.257812 C 137.613281 222.195312 136.375 222.035156 135.15625 221.714844 C 133.941406 221.402344 132.753906 220.890625 131.671875 220.234375 C 131.394531 220.078125 131.144531 219.890625 130.878906 219.722656 C 130.714844 219.621094 130.5625 219.53125 130.34375 219.46875 C 129.921875 219.332031 129.414062 219.28125 128.882812 219.277344 C 127.824219 219.265625 126.699219 219.433594 125.585938 219.660156 C 123.367188 220.136719 121.136719 220.851562 119.011719 221.671875 L 118.125 222.019531 C 119.578125 224.597656 121.273438 227.324219 123.257812 230.140625 C 132.917969 243.832031 151.480469 262.296875 185.054688 272.585938 C 201.101562 267.667969 213.714844 260.878906 223.570312 253.640625 C 236.453125 243.941406 244.566406 228.125 244.566406 228.125 L 236.175781 232.308594 C 245.429688 225.394531 250.195312 214.402344 250.527344 213.667969 Z M 148.773438 243.992188 C 146.339844 242.5625 144.015625 240.972656 141.78125 239.265625 C 139.558594 237.542969 137.410156 235.726562 135.382812 233.789062 C 133.347656 231.855469 131.394531 229.828125 129.65625 227.605469 C 131.9375 229.257812 134.144531 230.957031 136.34375 232.664062 L 142.9375 237.757812 C 145.140625 239.441406 147.359375 241.09375 149.582031 242.746094 C 151.835938 244.363281 154.109375 245.949219 156.425781 247.554688 C 153.75 246.660156 151.210938 245.398438 148.773438 243.992188 Z M 187.570312 252.457031 C 185 253.613281 182.21875 254.3125 179.433594 254.597656 C 176.644531 254.890625 173.832031 254.769531 171.085938 254.351562 C 168.535156 253.945312 166.023438 253.304688 163.640625 252.355469 C 163.289062 252.222656 163.101562 252.136719 163.101562 252.136719 C 181.273438 255.613281 195.199219 243.734375 195.199219 243.734375 L 172.90625 246.683594 C 177.125 245.675781 181.261719 244.375 185.355469 242.972656 C 189.453125 241.570312 193.503906 240.042969 197.535156 238.46875 C 201.570312 236.890625 205.570312 235.238281 209.566406 233.558594 C 211.558594 232.722656 213.546875 231.859375 215.53125 230.996094 C 217.515625 230.136719 219.5 229.261719 221.460938 228.371094 L 229.085938 224.894531 L 222.402344 229.953125 C 217.992188 233.300781 213.496094 236.507812 208.945312 239.644531 C 206.671875 241.210938 204.371094 242.746094 202.042969 244.242188 C 199.710938 245.738281 197.359375 247.207031 194.96875 248.597656 C 192.574219 249.984375 190.132812 251.316406 187.570312 252.457031 Z M 178.203125 189.546875 C 177.972656 190.589844 176.453125 194.605469 175.402344 197.316406 C 174.871094 196.296875 174.550781 195.398438 174.546875 195.390625 L 174.292969 194.667969 L 173.539062 194.757812 C 171.03125 195.050781 167.183594 196.421875 165.457031 197.074219 L 161.996094 188.238281 L 163.371094 181.558594 C 164.914062 184.042969 167.746094 187.699219 171.878906 187.726562 C 174.628906 187.726562 176.429688 186.492188 177.492188 185.128906 C 177.96875 186.964844 178.351562 188.863281 178.203125 189.546875 Z M 202.699219 186.675781 L 204.894531 191.421875 C 199.289062 199.171875 188.949219 195.003906 188.503906 194.820312 L 188.257812 194.71875 L 187.996094 194.761719 C 184.59375 195.285156 179.890625 196.851562 177.25 197.796875 C 178.230469 195.273438 179.78125 191.175781 180.058594 189.960938 C 180.460938 188.128906 178.945312 183.265625 178.636719 182.304688 L 178.472656 181.800781 L 164.050781 178.226562 L 164.371094 176.660156 L 164.84375 176.679688 L 167.25 176.816406 C 173.675781 177.195312 180.113281 177.644531 186.542969 178.09375 L 201.894531 179.269531 L 181.640625 181.859375 L 182.644531 183.167969 C 185.195312 186.515625 188.136719 188.210938 191.390625 188.210938 L 191.464844 188.210938 C 198.132812 188.15625 203.542969 180.957031 203.769531 180.652344 L 204.636719 179.476562 L 205.445312 179.539062 C 206.707031 181.738281 207.523438 184.671875 207.886719 186.203125 Z M 202.699219 186.675781 " fill-opacity="1" fill-rule="nonzero"/><path fill="#26263e" d="M 163.570312 175.621094 L 205.703125 178.347656 L 207.128906 180.828125 C 207.128906 180.828125 201.488281 187.886719 195.914062 190.738281 C 190.339844 193.59375 185.378906 190.300781 185.378906 190.300781 C 190.335938 191.34375 193.0625 189.441406 193.0625 189.441406 C 182.820312 190.910156 178.480469 181.804688 178.480469 181.804688 L 179.1875 189.871094 L 175.28125 198.789062 L 174.296875 194.667969 L 175.78125 189.4375 C 163.761719 190.679688 162 184.042969 162 184.042969 Z M 206.707031 226.625 C 206.707031 226.625 210.25 216.96875 214.523438 215.765625 C 218.796875 214.558594 225.152344 214.589844 227.566406 212.558594 C 227.566406 212.558594 233.296875 213.96875 237.851562 213.242188 C 237.851562 213.242188 230.324219 221.386719 223.726562 224.898438 C 217.125 228.410156 183.113281 245.132812 166.480469 244.484375 C 166.480469 244.484375 169.265625 248.480469 176.699219 248.667969 C 176.699219 248.667969 166.226562 252.203125 158.699219 250.53125 C 158.699219 250.53125 164.710938 257.679688 178.835938 257.589844 C 192.964844 257.496094 212.199219 240.8125 212.199219 240.8125 L 196.089844 255.828125 C 196.089844 255.828125 205.320312 253.691406 212.105469 248.855469 C 218.886719 244.019531 236.730469 228.875 236.730469 228.875 L 231.527344 236.125 L 236.730469 233.710938 L 234.6875 236.3125 L 237.289062 235.082031 C 237.289062 235.082031 232.777344 246.671875 219.472656 256.503906 L 231.53125 248.769531 C 231.53125 248.769531 250.839844 223.492188 250.527344 223.214844 C 250.210938 222.9375 250.953125 212.570312 250.953125 212.570312 L 248.628906 208.066406 L 236.734375 209.042969 L 231.160156 210.035156 L 226.976562 208.890625 L 217.90625 211.648438 L 209.113281 213.25 L 206.199219 218.609375 Z M 220.503906 248.167969 C 220.503906 248.167969 204.871094 259.9375 185.675781 265.761719 C 185.675781 265.761719 202.660156 268.242188 220.503906 248.167969 Z M 156.425781 247.554688 C 145.871094 240.992188 128.441406 222.75 128.441406 222.75 C 120.511719 233.890625 156.425781 247.554688 156.425781 247.554688 Z M 118.101562 224.128906 C 118.101562 224.128906 126.164062 220.222656 129.65625 221.433594 C 133.152344 222.644531 137.113281 225.246094 144.300781 224.128906 C 144.300781 224.128906 151.789062 228.476562 156.910156 227.605469 L 158.054688 222.75 L 145.789062 220.945312 L 138.082031 220.945312 L 130.84375 219.109375 L 127.949219 218.597656 L 119.363281 220.949219 L 117.292969 221.4375 Z M 161.679688 245.871094 C 161.679688 245.871094 167.597656 240.128906 176.148438 237.582031 C 184.699219 235.035156 196.9375 227.492188 199.9375 224.375 C 202.941406 221.257812 202.941406 221.257812 202.941406 221.257812 L 200.683594 218.925781 L 191.640625 225.617188 L 173.796875 232.820312 L 165.121094 239.828125 Z M 161.679688 245.871094 " fill-opacity="1" fill-rule="nonzero"/><path fill="#cdd3ed" d="M 240.476562 202.195312 C 235.808594 199.78125 229.675781 200.523438 229.675781 200.523438 C 229.675781 200.523438 235.574219 198.386719 240.476562 199.40625 C 240.476562 199.40625 239.027344 193.832031 235.109375 192.816406 C 234.738281 192.738281 234.367188 192.667969 233.976562 192.605469 C 233.578125 192.550781 233.179688 192.492188 232.773438 192.429688 C 225.667969 191.394531 217.636719 190.226562 216.519531 180.382812 L 207.679688 179.707031 C 209.21875 182.917969 209.949219 186.6875 209.988281 186.875 L 210.179688 187.90625 L 205.554688 188.324219 L 207.074219 191.597656 L 206.78125 192.042969 C 200.898438 200.90625 189.894531 197.351562 188.042969 196.675781 C 183.355469 197.457031 176.015625 200.277344 175.941406 200.300781 L 175.277344 200.558594 L 174.847656 199.992188 C 174.007812 198.890625 173.378906 197.5625 173.039062 196.746094 C 169.964844 197.308594 165.3125 199.164062 165.261719 199.179688 L 164.375 199.535156 L 161.300781 191.679688 C 160.179688 191.878906 159.023438 192.171875 157.914062 192.515625 C 156.5625 192.945312 155.238281 193.480469 153.984375 194.109375 C 152.710938 194.726562 151.539062 195.507812 150.433594 196.355469 C 149.320312 197.207031 148.382812 198.230469 147.519531 199.304688 L 147.371094 199.484375 L 147.210938 199.570312 C 145.890625 200.253906 144.585938 200.828125 143.234375 201.363281 C 141.890625 201.894531 140.519531 202.371094 139.121094 202.769531 C 137.726562 203.167969 136.300781 203.503906 134.84375 203.707031 C 134.484375 203.765625 134.109375 203.796875 133.746094 203.835938 L 132.683594 203.945312 C 132.003906 203.996094 131.332031 204.109375 130.65625 204.214844 C 127.976562 204.703125 125.355469 205.621094 123.160156 207.128906 C 122.074219 207.886719 121.105469 208.792969 120.335938 209.84375 C 119.960938 210.355469 119.636719 210.898438 119.367188 211.476562 C 119.367188 211.476562 123.703125 208.605469 129.667969 209.445312 C 135.636719 210.277344 143.8125 210.003906 147.160156 209.023438 C 147.160156 209.023438 139.515625 213.714844 132.695312 212.925781 L 129.445312 213.546875 C 128.96875 213.636719 128.40625 213.777344 127.894531 213.949219 C 127.371094 214.121094 126.863281 214.320312 126.355469 214.539062 C 125.355469 214.980469 124.398438 215.53125 123.527344 216.179688 C 123.078125 216.492188 122.683594 216.859375 122.269531 217.214844 C 122.078125 217.40625 121.894531 217.605469 121.707031 217.796875 L 121.433594 218.09375 L 121.179688 218.410156 C 121.007812 218.613281 120.84375 218.816406 120.695312 219.035156 C 122.164062 218.546875 123.644531 218.121094 125.183594 217.789062 C 126.375 217.546875 127.589844 217.351562 128.886719 217.363281 C 129.535156 217.371094 130.203125 217.421875 130.902344 217.648438 C 131.25 217.75 131.617188 217.933594 131.953125 218.15625 C 132.179688 218.304688 132.398438 218.46875 132.636719 218.601562 C 134.484375 219.746094 136.667969 220.246094 138.910156 220.351562 C 141.164062 220.449219 143.457031 220.210938 145.738281 219.84375 L 146.15625 219.777344 C 148.230469 220.546875 151.058594 220.214844 151.058594 220.214844 C 147.058594 219.195312 145.296875 214.824219 145.296875 214.824219 C 145.296875 214.824219 151.148438 219.378906 156.425781 216.492188 C 161.699219 213.613281 168.617188 213.984375 168.617188 213.984375 C 165.367188 214.726562 161.996094 217.238281 161.996094 217.238281 C 165.78125 215.847656 171.3125 216.121094 171.3125 216.121094 C 164.253906 218.816406 160.675781 222.929688 160.675781 222.929688 L 159.386719 224.59375 C 159.289062 224.722656 159.132812 224.964844 159.011719 225.167969 C 158.886719 225.382812 158.761719 225.601562 158.65625 225.828125 C 158.425781 226.28125 158.230469 226.757812 158.046875 227.246094 C 157.691406 228.214844 157.429688 229.230469 157.230469 230.257812 C 157.035156 231.289062 156.925781 232.34375 156.867188 233.398438 C 156.835938 233.792969 156.835938 234.1875 156.832031 234.582031 L 159.140625 232.570312 L 160.746094 231.175781 L 160.710938 233.316406 C 160.703125 234.160156 160.746094 235.085938 160.828125 235.96875 C 160.90625 236.863281 161.027344 237.75 161.1875 238.621094 C 161.34375 239.5 161.5625 240.359375 161.8125 241.203125 C 161.921875 241.5625 162.042969 241.914062 162.171875 242.261719 C 168.769531 230.292969 179.910156 228.003906 182.273438 227.648438 C 180.058594 227.835938 176.449219 226.804688 176.449219 226.804688 C 187.632812 224.945312 201.292969 216.722656 201.292969 216.722656 L 201.902344 218.195312 C 202.121094 218.722656 202.429688 219.328125 202.757812 219.863281 C 203.078125 220.414062 203.441406 220.941406 203.832031 221.441406 C 204.214844 221.949219 204.640625 222.421875 205.089844 222.863281 C 205.140625 222.914062 205.191406 222.953125 205.238281 223.003906 C 205.109375 222.757812 201.40625 215.523438 207.882812 208.308594 C 207.882812 208.308594 207.453125 210.535156 207.269531 212.023438 C 207.269531 212.023438 208.84375 209.886719 213.492188 209.980469 C 218.140625 210.070312 223.085938 209.683594 230.507812 206.023438 C 230.199219 206.902344 229.6875 207.683594 229.042969 208.351562 C 230.507812 208.726562 233.097656 209.164062 235.882812 208.5625 C 237.1875 208.285156 238.691406 208.269531 240.28125 208.257812 C 244.175781 208.226562 248.542969 208.199219 251.972656 204.300781 C 251.992188 204.324219 245.140625 204.613281 240.476562 202.195312 Z M 179.90625 213.050781 C 170.847656 210.898438 167.128906 208.976562 167.128906 208.976562 C 172.894531 210.09375 181.070312 207.539062 181.070312 207.539062 C 177.632812 206.9375 171.792969 207.347656 171.792969 207.347656 C 179.234375 203.199219 195.296875 201.636719 195.296875 201.636719 C 193.34375 202.851562 190.558594 206.289062 190.558594 206.289062 C 195.296875 204.707031 199.941406 201.636719 199.941406 201.636719 C 194.175781 210.464844 179.90625 213.050781 179.90625 213.050781 Z M 179.90625 213.050781 " fill-opacity="1" fill-rule="nonzero"/><path fill="#69729b" d="M 267.304688 177.945312 C 263.488281 176.964844 259.699219 175.9375 255.921875 174.851562 C 248.367188 172.679688 240.871094 170.382812 233.390625 167.980469 L 233.082031 167.882812 L 232.894531 167.605469 C 232.382812 166.855469 231.574219 166.210938 230.703125 165.660156 C 229.828125 165.109375 228.855469 164.648438 227.863281 164.25 C 226.859375 163.851562 225.832031 163.503906 224.78125 163.203125 C 223.742188 162.90625 222.660156 162.636719 221.617188 162.4375 L 221.101562 162.335938 L 208.105469 147.738281 C 201.664062 147.167969 185.519531 152.050781 185.046875 152.195312 C 188.917969 149.125 199.105469 144.023438 199.105469 144.023438 C 196.1875 144.382812 188.398438 146.898438 188.09375 146.992188 C 198.730469 139.089844 208.105469 134.539062 208.105469 134.539062 L 195.425781 120.121094 L 194.90625 119.351562 L 195.402344 118.882812 L 200.78125 113.917969 L 197.3125 119.394531 C 197.3125 119.394531 208.46875 117.007812 212.75 101.886719 C 207.089844 103.796875 185.582031 110.96875 177.375 112.683594 C 176.363281 116.394531 170.867188 136.253906 169.464844 138.894531 C 167.949219 141.738281 154.503906 157.886719 153.929688 158.574219 L 153.78125 158.753906 C 160.171875 158.714844 170.609375 155.941406 171.359375 155.746094 C 170.726562 156.007812 163.78125 158.847656 157.925781 160.003906 C 151.796875 161.210938 147.5625 161.34375 147.5625 161.34375 L 148.511719 167.613281 L 147.65625 167.8125 C 147.523438 167.847656 134.097656 170.996094 126.121094 174.988281 C 119.101562 178.496094 100.289062 186.5 95.195312 188.65625 C 97.140625 190.449219 102.179688 194.261719 110.535156 194.933594 C 121.324219 195.800781 133.460938 200.828125 135.460938 201.679688 C 136.511719 201.496094 137.558594 201.238281 138.597656 200.945312 C 141.195312 200.195312 143.769531 199.171875 146.164062 197.960938 C 147.089844 196.820312 148.097656 195.746094 149.253906 194.863281 C 149.460938 194.699219 149.671875 194.550781 149.886719 194.398438 C 148.414062 193.519531 141.441406 189.535156 135.816406 189.429688 C 129.496094 189.308594 120.980469 187.464844 120.980469 187.464844 C 117.765625 187.867188 114.546875 188.179688 111.3125 188.320312 C 117.628906 186.921875 123.957031 185.683594 130.175781 184.144531 C 131.726562 183.753906 133.265625 183.34375 134.785156 182.882812 C 136.289062 182.40625 137.800781 181.898438 139.125 181.203125 C 139.292969 181.121094 139.453125 181.039062 139.601562 180.9375 C 139.757812 180.84375 139.890625 180.765625 140.074219 180.644531 C 140.425781 180.417969 140.773438 180.1875 141.128906 179.964844 L 142.207031 179.332031 L 143.308594 178.75 C 144.789062 178 146.320312 177.355469 147.886719 176.820312 C 151.015625 175.730469 154.269531 175.050781 157.550781 174.703125 C 159.195312 174.542969 160.851562 174.476562 162.503906 174.503906 L 164.957031 174.617188 L 167.378906 174.769531 C 173.828125 175.199219 180.257812 175.691406 186.691406 176.195312 C 199.5625 177.160156 212.425781 178.121094 225.285156 179.191406 C 238.136719 180.332031 251.007812 181.285156 263.792969 183.1875 C 261.515625 183.15625 259.234375 183.09375 256.960938 183.007812 L 257.082031 183.019531 C 257.082031 183.019531 250.308594 187.414062 245.011719 187.601562 C 241.023438 187.742188 234.253906 189.429688 231.140625 190.257812 C 231.777344 190.355469 232.410156 190.445312 233.050781 190.542969 C 233.453125 190.601562 233.859375 190.664062 234.257812 190.722656 C 237.355469 191.191406 239.988281 192.28125 242.105469 193.625 C 245.214844 192.664062 248.324219 191.75 251.460938 190.890625 C 254.738281 189.992188 258.03125 189.144531 261.371094 188.429688 C 262.234375 188.257812 262.980469 188.050781 263.769531 187.855469 C 264.546875 187.597656 265.324219 187.367188 266.078125 187.035156 C 267.59375 186.429688 269.070312 185.683594 270.484375 184.828125 C 272.761719 183.46875 274.960938 181.863281 276.953125 180.105469 C 273.6875 179.53125 270.488281 178.753906 267.304688 177.945312 Z M 202.601562 166.019531 C 200.140625 165.890625 197.6875 165.675781 195.222656 165.464844 C 192.769531 165.214844 190.3125 164.941406 187.863281 164.585938 C 186.648438 164.414062 185.390625 164.15625 184.210938 163.992188 C 183.621094 163.910156 183.03125 163.796875 182.433594 163.742188 L 180.640625 163.574219 C 178.234375 163.394531 175.804688 163.429688 173.371094 163.519531 C 170.941406 163.636719 168.503906 163.839844 166.070312 164.140625 C 163.636719 164.417969 161.210938 164.796875 158.78125 165.214844 C 161.109375 164.386719 163.503906 163.769531 165.917969 163.222656 C 168.335938 162.710938 170.785156 162.285156 173.261719 162.046875 C 175.738281 161.78125 178.234375 161.703125 180.742188 161.78125 L 182.621094 161.917969 C 183.246094 161.964844 183.871094 162.082031 184.496094 162.152344 C 185.757812 162.320312 186.917969 162.546875 188.136719 162.707031 C 190.546875 163.085938 192.988281 163.371094 195.417969 163.671875 C 197.847656 163.984375 200.289062 164.234375 202.726562 164.539062 C 207.609375 165.097656 212.496094 165.65625 217.382812 166.328125 C 212.453125 166.453125 207.527344 166.308594 202.601562 166.019531 Z M 164.054688 222.828125 C 169.621094 217.628906 185.34375 214.46875 193.058594 211 C 200.769531 207.53125 202.273438 199.226562 202.273438 199.226562 C 190.949219 199.132812 176.886719 202.761719 172.332031 204.523438 C 167.78125 206.289062 161.992188 208.148438 161.992188 208.148438 L 164.804688 211.863281 C 158.484375 212.234375 159.507812 213.628906 153.652344 214.652344 C 149.132812 215.4375 146.605469 212.832031 145.691406 211.601562 C 149.742188 209.707031 150.773438 206.84375 150.773438 206.84375 C 139.433594 208.886719 135.160156 206.472656 129.65625 206.84375 C 124.15625 207.21875 119.359375 211.480469 119.359375 211.480469 C 126.605469 210.640625 132.6875 212.929688 132.6875 212.929688 C 137.417969 213.542969 140.949219 213.1875 143.578125 212.398438 C 143.382812 214.386719 143.871094 216.179688 144.433594 217.507812 C 137.371094 218.148438 133.226562 215.851562 129.660156 215.761719 C 125.925781 215.664062 120.691406 219.035156 120.691406 219.035156 L 129.660156 218.589844 L 133.214844 220.125 L 141.671875 221.425781 L 147.523438 220.9375 L 147.128906 220.25 L 157.472656 223.285156 C 157.472656 223.285156 157.007812 227.46875 156.917969 227.59375 C 156.824219 227.726562 156.84375 234.59375 156.84375 234.59375 C 158.535156 226.945312 171.132812 220.125 171.132812 220.125 C 168.429688 220.96875 164.054688 222.828125 164.054688 222.828125 Z M 217.386719 208.050781 C 214.210938 207.867188 209.972656 208.519531 209.972656 208.519531 L 209.972656 203.222656 C 203 208.425781 202.273438 215.492188 202.273438 215.492188 L 200.863281 213.242188 C 194.082031 221.496094 167.300781 227.292969 167.300781 227.292969 L 172.425781 228.40625 C 164.804688 232.957031 162.179688 242.28125 162.179688 242.28125 L 168.246094 236.394531 L 182.835938 229.335938 L 200.679688 218.925781 L 206.070312 224.5 C 206.070312 224.5 206.164062 219.386719 206.070312 219.019531 C 205.976562 218.644531 209.230469 213.050781 209.230469 213.050781 L 221.871094 211 L 229.0625 208.378906 C 230.910156 206.957031 231.535156 203.222656 231.535156 203.222656 C 228.921875 205.925781 220.570312 208.238281 217.386719 208.050781 Z M 231.085938 191.695312 C 236.398438 193.832031 235.992188 197.316406 235.992188 197.316406 C 229.953125 197.734375 226.144531 201.6875 226.144531 201.6875 C 230.605469 201.457031 234.878906 202.386719 240.476562 204.328125 C 246.074219 206.265625 251.992188 204.328125 251.992188 204.328125 C 251.992188 204.328125 243.425781 198.113281 239.527344 194.765625 C 235.621094 191.417969 231.085938 191.695312 231.085938 191.695312 Z M 195.207031 197.949219 C 203.992188 198.902344 211.550781 192.71875 211.550781 192.71875 L 208.910156 189.972656 L 213.507812 189.4375 L 213.414062 185.191406 C 217.121094 190.6875 226.082031 191.164062 226.082031 191.164062 C 216.316406 186.222656 217.390625 179.710938 217.390625 179.710938 L 206.632812 178.59375 L 208.863281 186.675781 L 204.496094 187.609375 L 205.980469 191.6875 C 204.304688 196.421875 195.207031 197.949219 195.207031 197.949219 Z M 151.800781 199.308594 C 151.800781 199.308594 159.949219 196.605469 164.375 199.539062 L 161.996094 190.019531 C 161.996094 190.019531 150.484375 193.253906 147.519531 199.304688 C 147.519531 199.304688 153.378906 195.558594 157.933594 195.132812 C 157.933594 195.132812 153.285156 197.71875 151.800781 199.308594 Z M 151.800781 199.308594 " fill-opacity="1" fill-rule="nonzero"/><path fill="#484670" d="M 198.542969 121.441406 L 194.90625 119.355469 C 197.125 111.878906 204.957031 107.78125 204.957031 107.78125 C 204.304688 109.734375 203.691406 111.777344 203.691406 111.777344 C 208.253906 108.101562 212.75 101.890625 212.75 101.890625 C 211.257812 116.917969 198.542969 121.441406 198.542969 121.441406 Z M 207.125 131.691406 C 207.125 131.691406 196.855469 135.285156 182.960938 147.550781 L 186.074219 148.296875 C 186.074219 148.296875 161.152344 155.855469 157.3125 152.882812 L 152.175781 159.078125 L 146.535156 160.566406 L 147.894531 163.558594 C 147.894531 163.558594 157.246094 162.671875 167.128906 159.453125 C 177.011719 156.230469 196.855469 156.847656 196.855469 156.847656 C 196.855469 156.847656 191.609375 154.988281 185.675781 154.617188 C 185.675781 154.617188 197.175781 152.386719 202.273438 153.378906 C 207.367188 154.367188 221.613281 162.4375 221.613281 162.4375 C 221.613281 162.4375 207.671875 145.171875 207.890625 144.816406 C 208.113281 144.460938 208.976562 133.925781 208.976562 133.925781 Z M 158.78125 165.21875 C 158.78125 165.21875 172.640625 165.152344 178.238281 167.257812 C 183.832031 169.363281 200.3125 174.035156 211.957031 173.992188 C 211.957031 173.992188 195.972656 170.601562 193.125 168.621094 C 193.125 168.621094 218.367188 171.703125 226.707031 170.105469 C 226.707031 170.105469 220.59375 168.878906 217.390625 166.332031 C 217.390625 166.332031 205.269531 165.78125 199.941406 165.214844 C 194.617188 164.648438 182.84375 162.542969 181.851562 162.542969 C 180.859375 162.542969 168.304688 162.4375 158.78125 165.21875 Z M 255.445312 182.988281 C 254.558594 182.492188 247.269531 184.972656 247.269531 184.972656 L 227.566406 190.71875 L 234.503906 191.691406 L 241.8125 194.78125 C 241.8125 194.78125 262.75 188.941406 267.089844 187.613281 C 271.425781 186.285156 278.738281 179.710938 278.738281 179.710938 L 276.949219 180.117188 C 269.09375 184.179688 263.785156 183.195312 263.785156 183.195312 C 255.398438 182.617188 256.332031 183.488281 255.445312 182.988281 Z M 111.308594 188.324219 C 111.308594 188.324219 102.460938 189.613281 95.191406 188.660156 C 95.191406 188.660156 96.71875 193.3125 105.144531 194.78125 C 113.566406 196.25 119.359375 197.316406 119.359375 197.316406 L 135.066406 202.324219 C 135.066406 202.324219 141.699219 201.210938 142.066406 200.960938 C 142.441406 200.714844 147.515625 198.054688 147.515625 198.054688 L 152.96875 192.90625 L 139.835938 187.207031 L 120.476562 186.898438 Z M 111.308594 188.324219 " fill-opacity="1" fill-rule="nonzero"/><path fill="#cdd3ed" d="M 212.75 101.890625 C 212.75 101.890625 194.484375 111.621094 180.914062 114.410156 C 180.914062 114.410156 175.773438 136.429688 174.101562 138.738281 C 172.425781 141.046875 159.339844 152.011719 159.339844 152.011719 L 168.710938 138.738281 L 176.609375 111.664062 Z M 139.59375 169.113281 L 129.058594 172.582031 L 115.304688 178.585938 C 115.304688 178.585938 101.675781 184.96875 100.664062 185.09375 C 99.652344 185.214844 95.191406 188.652344 95.191406 188.652344 C 95.191406 188.652344 109.605469 183.976562 114.683594 182.488281 C 119.761719 181.003906 130.917969 175.671875 136.617188 173.074219 C 142.316406 170.46875 155.945312 166.371094 155.945312 166.371094 L 148.507812 167.613281 Z M 139.59375 169.113281 " fill-opacity="1" fill-rule="nonzero"/><path fill="#14142c" d="M 279.234375 178.148438 C 277.050781 177.808594 274.65625 177.324219 271.726562 176.636719 L 271.726562 111.984375 L 260.851562 111.984375 C 245.433594 111.984375 229.941406 109.464844 214.792969 104.492188 C 215.167969 102.097656 215.175781 100.566406 215.175781 100.550781 L 215.199219 98.601562 L 213.34375 99.230469 C 213.238281 99.269531 210.53125 100.183594 206.507812 101.511719 C 196.640625 97.617188 190.863281 94.09375 190.808594 94.0625 L 185.042969 90.46875 L 179.289062 94.050781 C 178.082031 94.789062 149.367188 111.984375 109.214844 111.984375 L 98.339844 111.984375 L 98.339844 184.789062 C 95.957031 185.804688 94.171875 186.5625 93.410156 186.886719 C 93.160156 186.992188 93.019531 187.054688 93.007812 187.058594 L 91.3125 187.769531 L 92.472656 189.195312 C 92.550781 189.292969 94.421875 191.601562 98.339844 193.761719 L 98.339844 203.585938 L 98.535156 204.75 C 98.65625 205.363281 101.605469 219.957031 113.507812 236.859375 C 124.261719 252.136719 144.851562 272.714844 181.863281 283.976562 L 185.03125 284.945312 L 188.199219 283.976562 C 225.199219 272.714844 245.800781 252.136719 256.5625 236.859375 C 268.121094 220.445312 271.210938 206.304688 271.53125 204.742188 L 271.71875 203.753906 L 271.726562 186.804688 C 274.757812 184.984375 277.46875 182.917969 280.003906 180.484375 L 281.996094 178.570312 Z M 192.84375 105.914062 C 188.933594 104.003906 186.46875 102.546875 185.800781 102.140625 C 185.785156 102.132812 185.773438 102.125 185.765625 102.121094 L 185.03125 101.65625 L 184.304688 102.121094 C 183.019531 102.910156 152.347656 121.488281 109.214844 121.488281 L 107.835938 121.488281 L 107.835938 180.707031 C 105.464844 181.734375 103.15625 182.734375 101.09375 183.613281 L 101.09375 114.742188 L 109.214844 114.742188 C 150.3125 114.742188 179.503906 97.152344 180.734375 96.402344 L 185.039062 93.726562 L 189.359375 96.410156 C 189.40625 96.441406 194.015625 99.300781 202.457031 102.847656 C 199.832031 103.699219 196.328125 104.828125 192.84375 105.914062 Z M 180.859375 181.53125 L 182.3125 183.429688 C 184.953125 186.886719 188.007812 188.636719 191.40625 188.636719 L 191.476562 188.636719 C 198.179688 188.585938 203.535156 181.695312 204.125 180.910156 L 204.851562 179.929688 L 205.191406 179.953125 C 206.25 181.867188 206.96875 184.289062 207.359375 185.828125 L 202.058594 186.308594 L 204.402344 191.375 C 198.953125 198.589844 189.09375 194.605469 188.675781 194.429688 L 188.316406 194.277344 L 187.9375 194.335938 C 184.816406 194.816406 180.652344 196.152344 177.988281 197.082031 C 179.058594 194.308594 180.238281 191.128906 180.480469 190.050781 C 180.894531 188.15625 179.492188 183.542969 179.050781 182.171875 L 178.816406 181.441406 L 164.558594 177.90625 L 164.726562 177.097656 L 167.234375 177.238281 C 173.667969 177.621094 180.203125 178.078125 186.519531 178.519531 L 197.6875 179.371094 Z M 171.875 188.152344 C 174.496094 188.152344 176.207031 187.105469 177.273438 186.027344 C 177.761719 188.027344 177.859375 189.101562 177.785156 189.453125 C 177.625 190.171875 176.726562 192.679688 175.355469 196.238281 C 175.160156 195.796875 175.023438 195.4375 174.953125 195.257812 L 174.582031 194.195312 L 173.484375 194.328125 C 171.160156 194.601562 167.753906 195.761719 165.695312 196.519531 L 162.4375 188.195312 L 163.574219 182.664062 C 166.050781 186.292969 168.839844 188.136719 171.875 188.152344 Z M 143.390625 201.765625 C 144.902344 201.167969 146.179688 200.589844 147.40625 199.949219 L 147.640625 199.828125 L 147.847656 199.578125 C 148.855469 198.328125 149.757812 197.414062 150.691406 196.699219 C 151.910156 195.765625 153.046875 195.046875 154.167969 194.503906 C 155.417969 193.882812 156.71875 193.355469 158.039062 192.9375 C 159.066406 192.617188 160.070312 192.359375 161.027344 192.175781 L 164.128906 200.105469 L 165.402344 199.589844 L 165.457031 199.574219 C 166.222656 199.273438 170.046875 197.804688 172.777344 197.246094 C 173.121094 198.023438 173.710938 199.222656 174.5 200.261719 L 175.125 201.082031 L 176.101562 200.703125 C 176.859375 200.417969 183.578125 197.882812 187.996094 197.121094 C 190.390625 197.980469 201.199219 201.222656 207.132812 192.28125 L 207.550781 191.636719 L 206.195312 188.699219 L 210.6875 188.289062 L 210.398438 186.765625 C 210.21875 185.878906 209.578125 182.953125 208.371094 180.1875 L 216.132812 180.78125 C 217.433594 190.628906 225.539062 191.8125 232.703125 192.851562 C 233.074219 192.90625 233.441406 192.957031 233.804688 193.015625 L 233.90625 193.027344 C 234.300781 193.082031 234.699219 193.167969 235 193.226562 C 237.855469 193.964844 239.339844 197.398438 239.851562 198.855469 C 235.054688 198.140625 229.757812 200.027344 229.527344 200.113281 L 226.015625 201.386719 L 229.722656 200.941406 C 229.785156 200.929688 235.785156 200.246094 240.273438 202.566406 C 243.949219 204.472656 248.851562 204.734375 250.96875 204.753906 C 247.773438 207.792969 243.8125 207.816406 240.289062 207.84375 L 240.222656 207.84375 C 238.636719 207.855469 237.136719 207.867188 235.804688 208.15625 C 233.558594 208.644531 231.421875 208.433594 229.847656 208.109375 C 230.320312 207.511719 230.679688 206.867188 230.921875 206.179688 L 231.269531 205.191406 L 230.328125 205.65625 C 222.699219 209.417969 217.640625 209.644531 213.507812 209.566406 C 210.59375 209.507812 208.824219 210.300781 207.863281 210.953125 C 208.0625 209.699219 208.304688 208.421875 208.308594 208.402344 L 208.601562 206.886719 L 207.570312 208.035156 C 202.984375 213.144531 203.367188 218.300781 204.101562 221.09375 C 203.742188 220.625 203.414062 220.140625 203.132812 219.652344 C 202.820312 219.128906 202.519531 218.542969 202.3125 218.042969 L 201.503906 216.109375 L 201.082031 216.367188 C 200.945312 216.449219 187.363281 224.566406 176.386719 226.390625 L 174.515625 226.703125 L 176.339844 227.226562 C 176.429688 227.253906 177.785156 227.636719 179.335938 227.890625 C 175.042969 229.140625 167.4375 232.5 162.273438 241.242188 C 162.257812 241.191406 162.242188 241.144531 162.226562 241.09375 C 161.953125 240.171875 161.75 239.339844 161.609375 238.554688 C 161.457031 237.714844 161.335938 236.835938 161.253906 235.9375 C 161.171875 235.039062 161.136719 234.132812 161.144531 233.332031 L 161.191406 230.234375 L 157.28125 233.636719 C 157.285156 233.570312 157.289062 233.5 157.292969 233.4375 C 157.363281 232.28125 157.476562 231.269531 157.652344 230.351562 C 157.867188 229.257812 158.128906 228.289062 158.449219 227.40625 C 158.652344 226.882812 158.828125 226.449219 159.046875 226.023438 C 159.152344 225.800781 159.277344 225.582031 159.382812 225.394531 C 159.496094 225.203125 159.644531 224.976562 159.726562 224.867188 L 160.996094 223.21875 C 161.03125 223.179688 164.578125 219.160156 171.464844 216.53125 L 173.363281 215.804688 L 171.332031 215.699219 C 171.152344 215.691406 167.808594 215.539062 164.535156 216.132812 C 165.726562 215.464844 167.238281 214.746094 168.707031 214.40625 L 171.675781 213.726562 L 168.632812 213.5625 C 168.347656 213.546875 161.53125 213.222656 156.210938 216.125 C 151.246094 218.839844 145.605469 214.535156 145.546875 214.488281 L 144.292969 213.515625 L 144.890625 214.988281 C 144.953125 215.144531 146.21875 218.214844 149.039062 219.855469 C 148.171875 219.820312 147.152344 219.703125 146.292969 219.382812 L 146.1875 219.34375 L 145.660156 219.429688 C 142.976562 219.855469 140.832031 220.011719 138.917969 219.925781 C 136.515625 219.816406 134.476562 219.25 132.835938 218.230469 C 132.695312 218.148438 132.558594 218.058594 132.425781 217.964844 C 132.34375 217.910156 132.257812 217.851562 132.179688 217.800781 C 131.8125 217.554688 131.394531 217.351562 131.019531 217.242188 C 130.222656 216.988281 129.492188 216.945312 128.875 216.9375 C 127.472656 216.921875 126.171875 217.152344 125.074219 217.375 C 124.058594 217.59375 123.007812 217.863281 121.898438 218.199219 L 121.992188 218.097656 C 122.066406 218.019531 122.136719 217.945312 122.210938 217.867188 C 122.324219 217.75 122.433594 217.632812 122.53125 217.539062 L 122.746094 217.347656 C 123.082031 217.054688 123.398438 216.773438 123.757812 216.523438 C 124.601562 215.898438 125.527344 215.363281 126.5 214.933594 C 127.050781 214.699219 127.542969 214.507812 128.007812 214.355469 C 128.476562 214.203125 129.023438 214.054688 129.503906 213.964844 L 132.6875 213.359375 C 139.5625 214.117188 147.042969 209.585938 147.359375 209.394531 L 150.089844 207.714844 L 147.011719 208.613281 C 143.925781 209.515625 135.867188 209.878906 129.699219 209.019531 C 125.550781 208.4375 122.203125 209.582031 120.445312 210.398438 C 120.515625 210.296875 120.585938 210.199219 120.65625 210.097656 C 121.367188 209.128906 122.285156 208.246094 123.378906 207.484375 C 125.363281 206.121094 127.828125 205.167969 130.703125 204.640625 C 131.359375 204.53125 132.035156 204.425781 132.707031 204.375 L 134.015625 204.242188 C 134.304688 204.210938 134.597656 204.1875 134.882812 204.132812 C 136.199219 203.953125 137.621094 203.640625 139.21875 203.1875 C 140.589844 202.796875 141.984375 202.324219 143.390625 201.765625 Z M 125.652344 220.070312 C 126.941406 219.804688 127.964844 219.6875 128.855469 219.695312 C 129.40625 219.699219 129.851562 219.757812 130.203125 219.875 C 130.367188 219.921875 130.488281 219.992188 130.621094 220.078125 C 130.710938 220.136719 130.800781 220.191406 130.886719 220.25 C 131.066406 220.371094 131.242188 220.492188 131.421875 220.59375 C 132.570312 221.289062 133.78125 221.804688 135.023438 222.125 C 136.191406 222.425781 137.425781 222.605469 138.800781 222.679688 C 140.804688 222.769531 142.886719 222.632812 145.527344 222.234375 C 145.863281 222.472656 146.203125 222.683594 146.597656 222.925781 C 147.195312 223.265625 147.710938 223.527344 148.214844 223.753906 C 149.433594 224.292969 150.554688 224.679688 151.640625 224.929688 C 153.007812 225.246094 154.140625 225.410156 155.191406 225.457031 C 155.546875 225.492188 155.902344 225.496094 156.253906 225.496094 C 156.128906 225.78125 156.003906 226.09375 155.867188 226.453125 C 155.484375 227.492188 155.183594 228.601562 154.949219 229.839844 C 154.75 230.882812 154.617188 232.011719 154.539062 233.285156 C 154.519531 233.671875 154.515625 234.054688 154.507812 234.433594 C 154.503906 234.621094 154.503906 234.804688 154.496094 235.019531 L 154.640625 239.59375 L 158.511719 236.21875 C 158.59375 237.140625 158.722656 238.070312 158.898438 239.054688 C 159.054688 239.929688 159.28125 240.855469 159.589844 241.894531 C 159.847656 242.757812 160.195312 243.664062 160.65625 244.664062 L 161.566406 246.664062 L 162.976562 244.9375 C 164.136719 243.511719 165.4375 242.070312 166.851562 240.644531 C 168.375 239.109375 169.777344 237.867188 171.136719 236.84375 C 171.984375 236.21875 172.703125 235.722656 173.453125 235.316406 L 174.027344 235.003906 L 174.675781 234.730469 C 174.914062 234.613281 175.214844 234.507812 175.507812 234.402344 C 175.667969 234.347656 175.828125 234.292969 175.96875 234.238281 C 176.449219 234.070312 176.925781 233.902344 177.40625 233.734375 C 178.777344 233.261719 180.195312 232.765625 181.585938 232.246094 C 183.25 231.621094 185.222656 230.867188 187.160156 229.980469 C 187.808594 229.703125 188.449219 229.390625 189.070312 229.085938 C 189.34375 228.953125 189.625 228.816406 189.914062 228.675781 C 190.171875 228.539062 190.433594 228.402344 190.695312 228.269531 C 191.320312 227.941406 191.96875 227.605469 192.578125 227.230469 C 194.265625 226.285156 195.929688 225.160156 197.667969 223.796875 C 198.699219 222.984375 199.71875 222.042969 200.710938 220.988281 C 200.722656 221.015625 200.738281 221.035156 200.753906 221.0625 C 201.113281 221.679688 201.527344 222.289062 201.984375 222.875 C 202.421875 223.453125 202.917969 224.011719 203.445312 224.535156 C 203.992188 225.089844 204.59375 225.5625 205.128906 225.960938 L 207.019531 227.40625 L 207.34375 225.027344 C 207.628906 222.902344 208.148438 219.773438 209.347656 217.085938 C 209.640625 216.433594 209.941406 215.898438 210.261719 215.453125 C 210.617188 214.953125 211.003906 214.574219 211.40625 214.339844 C 211.480469 214.285156 211.558594 214.25 211.671875 214.207031 L 211.730469 214.179688 C 211.777344 214.160156 211.84375 214.140625 211.910156 214.125 C 211.972656 214.105469 212.035156 214.089844 212.066406 214.078125 C 212.148438 214.054688 212.230469 214.03125 212.3125 214.003906 C 212.386719 213.984375 212.460938 213.960938 212.503906 213.949219 L 213.015625 213.847656 C 213.277344 213.785156 213.550781 213.742188 213.84375 213.699219 L 214.003906 213.675781 C 214.257812 213.632812 214.523438 213.597656 214.785156 213.5625 L 216.03125 213.410156 C 218.585938 213.101562 221.230469 212.785156 223.773438 211.902344 C 224.90625 211.53125 226.074219 210.980469 227.246094 210.265625 C 228 210.527344 230.222656 211.207031 232.996094 211.207031 C 234.15625 211.207031 235.289062 211.089844 236.371094 210.855469 C 237.46875 210.621094 238.910156 210.613281 240.296875 210.605469 C 242.765625 210.585938 245.550781 210.566406 248.285156 209.585938 C 248.328125 209.734375 248.359375 209.878906 248.386719 210.027344 C 248.484375 210.597656 248.5 211.164062 248.433594 211.703125 C 248.425781 211.761719 248.414062 211.816406 248.410156 211.871094 C 248.402344 211.953125 248.390625 212.039062 248.367188 212.136719 L 248.328125 212.320312 C 248.320312 212.351562 248.3125 212.386719 248.300781 212.445312 C 248.285156 212.46875 248.277344 212.492188 248.265625 212.523438 L 248.179688 212.664062 C 248.160156 212.703125 248.121094 212.75 248.082031 212.796875 C 248.039062 212.851562 247.992188 212.914062 247.972656 212.9375 C 247.605469 213.402344 247.136719 213.867188 246.652344 214.339844 C 245.660156 215.28125 244.574219 216.195312 243.515625 217.082031 C 242.355469 218.054688 241.203125 218.984375 240.234375 219.769531 C 239.160156 220.628906 238.085938 221.484375 237.007812 222.347656 C 233.679688 224.996094 230.238281 227.738281 226.960938 230.640625 C 226.363281 231.175781 225.835938 231.660156 225.351562 232.113281 C 224.996094 232.445312 224.640625 232.800781 224.300781 233.148438 C 224.132812 233.316406 223.96875 233.484375 223.804688 233.640625 C 222.734375 234.722656 221.613281 235.761719 220.761719 236.550781 C 218.660156 238.488281 216.46875 240.382812 214.398438 242.160156 C 212.335938 243.917969 210.128906 245.789062 207.882812 247.625 C 206.898438 248.449219 205.875 249.261719 204.882812 250.046875 L 204.019531 250.71875 C 203.101562 251.421875 202.152344 252.148438 201.160156 252.765625 C 201.160156 252.765625 204.339844 252.210938 205.445312 251.582031 C 206.144531 251.183594 206.75 250.8125 207.300781 250.457031 C 207.898438 250.085938 208.515625 249.695312 209.113281 249.289062 C 211.472656 247.707031 213.824219 246.003906 216.089844 244.226562 C 218.21875 242.574219 220.390625 240.769531 222.722656 238.71875 C 223.75 237.8125 224.851562 236.828125 225.917969 235.800781 C 226.101562 235.625 226.277344 235.453125 226.453125 235.285156 C 226.785156 234.964844 227.109375 234.65625 227.449219 234.347656 C 227.894531 233.933594 228.386719 233.488281 229 232.953125 C 231.707031 230.628906 234.570312 228.339844 237.34375 226.136719 C 238.949219 224.855469 240.605469 223.535156 242.246094 222.191406 C 244.332031 220.480469 246.488281 218.714844 248.519531 216.742188 C 246.300781 220.851562 242.128906 227.320312 235.90625 231.96875 L 243.5 229.121094 C 241.332031 232.96875 233.894531 245.300781 223.285156 253.292969 C 212.285156 261.371094 199.410156 267.710938 185.019531 272.136719 C 151.625 261.867188 133.171875 243.5 123.570312 229.890625 C 121.832031 227.421875 120.195312 224.851562 118.703125 222.238281 L 119.132812 222.070312 C 121.449219 221.175781 123.636719 220.503906 125.652344 220.070312 Z M 101.09375 195.082031 C 103.203125 195.957031 105.464844 196.585938 107.835938 196.960938 L 107.835938 202.675781 L 107.863281 202.933594 C 107.960938 203.460938 110.421875 215.984375 121.269531 231.394531 C 131.167969 245.457031 150.203125 264.417969 184.625 274.894531 L 185.027344 275.019531 L 185.425781 274.894531 C 219.855469 264.417969 238.882812 245.457031 248.789062 231.394531 C 259.480469 216.207031 262.097656 203.476562 262.203125 202.921875 L 262.21875 190.640625 C 262.859375 190.5 263.53125 190.328125 264.1875 190.164062 L 264.855469 189.960938 C 265.546875 189.734375 266.261719 189.503906 266.933594 189.210938 C 267.601562 188.945312 268.269531 188.652344 268.960938 188.3125 L 268.960938 203.460938 L 268.8125 204.222656 C 268.691406 204.820312 265.792969 218.945312 254.300781 235.28125 C 243.78125 250.207031 223.636719 270.320312 187.382812 281.351562 L 185.019531 282.074219 L 182.652344 281.351562 C 146.382812 270.308594 126.253906 250.203125 115.75 235.28125 C 104.152344 218.804688 101.34375 204.824219 101.234375 204.238281 L 101.082031 203.464844 L 101.082031 195.082031 Z M 264.101562 187.304688 L 263.667969 187.449219 L 263.164062 187.574219 C 262.542969 187.734375 261.957031 187.882812 261.28125 188.015625 C 258.386719 188.632812 255.320312 189.394531 251.34375 190.484375 C 248.34375 191.304688 245.25 192.207031 242.160156 193.164062 C 239.792969 191.695312 237.152344 190.730469 234.320312 190.308594 C 234.105469 190.273438 233.890625 190.242188 233.671875 190.210938 L 233.285156 190.152344 C 236.636719 189.3125 241.796875 188.152344 245.019531 188.039062 C 250.082031 187.859375 256.308594 184.015625 257.207031 183.453125 C 259.652344 183.542969 263.847656 182.769531 263.847656 182.769531 C 253.136719 181.179688 242.203125 180.238281 231.625 179.324219 C 229.523438 179.144531 227.421875 178.960938 225.3125 178.777344 C 213.421875 177.785156 201.324219 176.878906 189.628906 175.996094 L 186.71875 175.777344 C 180.171875 175.269531 173.765625 174.78125 167.398438 174.351562 L 164.976562 174.199219 L 162.507812 174.082031 C 160.84375 174.058594 159.160156 174.121094 157.503906 174.285156 C 154.050781 174.648438 150.769531 175.367188 147.746094 176.417969 C 146.164062 176.957031 144.605469 177.617188 143.101562 178.378906 L 141.984375 178.972656 L 140.898438 179.609375 C 140.59375 179.796875 140.296875 179.992188 140 180.183594 L 139.828125 180.296875 C 139.691406 180.386719 139.582031 180.449219 139.472656 180.519531 L 139.347656 180.59375 C 139.242188 180.664062 139.109375 180.738281 138.914062 180.832031 C 137.597656 181.523438 136.082031 182.027344 134.652344 182.476562 C 133.050781 182.964844 131.429688 183.382812 130.066406 183.734375 C 125.960938 184.75 121.734375 185.648438 117.648438 186.519531 C 115.503906 186.972656 113.355469 187.429688 111.210938 187.90625 C 111.210938 187.90625 117.375 188.351562 120.957031 187.902344 C 121.800781 188.082031 129.816406 189.75 135.800781 189.863281 C 140.789062 189.960938 146.945312 193.210938 149.097656 194.445312 C 149.058594 194.472656 149.023438 194.5 148.988281 194.53125 C 147.945312 195.328125 146.960938 196.3125 145.886719 197.625 C 143.503906 198.824219 141.015625 199.804688 138.480469 200.539062 C 137.386719 200.847656 136.414062 201.078125 135.507812 201.238281 C 132.945312 200.152344 121.171875 195.359375 110.5625 194.507812 C 102.933594 193.890625 98.089844 190.585938 95.984375 188.789062 C 102.140625 186.175781 119.589844 178.730469 126.308594 175.371094 C 133.820312 171.617188 146.316406 168.578125 147.75 168.234375 L 148.992188 167.941406 L 148.054688 161.75 C 149.339844 161.679688 153.089844 161.394531 158.007812 160.429688 C 163.890625 159.265625 170.761719 156.460938 171.523438 156.144531 C 171.523438 156.144531 160.433594 158.058594 154.710938 158.304688 C 157.136719 155.386719 168.441406 141.738281 169.84375 139.097656 C 171.304688 136.363281 176.992188 115.71875 177.722656 113.050781 C 185.917969 111.289062 206.332031 104.5 212.109375 102.558594 C 208.613281 113.875 201.097656 117.613281 198.304688 118.640625 L 202.894531 111.386719 L 195.113281 118.574219 L 194.347656 119.289062 L 195.066406 120.359375 L 207.410156 134.402344 C 205.320312 135.464844 196.992188 139.839844 187.832031 146.648438 L 185.808594 148.152344 L 188.335938 147.363281 C 189.664062 146.9375 193.214844 145.832031 196.085938 145.09375 C 192.765625 146.839844 187.390625 149.777344 184.777344 151.855469 L 183.046875 153.238281 L 185.191406 152.589844 C 186.875 152.085938 201.695312 147.699219 207.898438 148.148438 L 220.878906 162.722656 L 221.535156 162.851562 C 222.476562 163.03125 223.527344 163.285156 224.664062 163.609375 C 225.683594 163.902344 226.703125 164.246094 227.699219 164.644531 C 228.78125 165.078125 229.691406 165.527344 230.472656 166.019531 C 231.453125 166.640625 232.125 167.234375 232.539062 167.839844 L 232.8125 168.242188 L 233.261719 168.386719 C 240.941406 170.855469 248.53125 173.167969 255.804688 175.261719 C 259.542969 176.339844 263.375 177.378906 267.199219 178.359375 C 269.996094 179.070312 272.984375 179.800781 276.003906 180.375 C 274.199219 181.898438 272.273438 183.277344 270.269531 184.46875 C 268.847656 185.324219 267.390625 186.054688 265.910156 186.652344 C 265.320312 186.90625 264.699219 187.113281 264.101562 187.304688 Z M 268.96875 175.964844 C 268.839844 175.929688 268.707031 175.898438 268.578125 175.863281 L 267.878906 175.6875 C 266.011719 175.210938 264.109375 174.703125 262.230469 174.195312 L 262.230469 121.488281 L 260.851562 121.488281 C 244.480469 121.488281 228.09375 118.855469 212.136719 113.660156 C 213.027344 111.648438 213.742188 109.488281 214.269531 107.222656 C 229.597656 112.210938 245.265625 114.742188 260.851562 114.742188 L 268.972656 114.742188 L 268.972656 175.964844 Z M 163.480469 252.757812 C 165.765625 253.664062 168.304688 254.34375 171.023438 254.777344 C 172.820312 255.050781 174.589844 255.1875 176.304688 255.1875 C 177.382812 255.1875 178.4375 255.136719 179.476562 255.027344 C 182.425781 254.71875 185.207031 253.984375 187.746094 252.851562 C 190.566406 251.597656 193.207031 250.117188 195.195312 248.972656 C 197.316406 247.734375 199.574219 246.347656 202.28125 244.605469 C 204.550781 243.144531 206.875 241.59375 209.191406 240 C 214.234375 236.519531 218.640625 233.347656 222.664062 230.296875 L 232.425781 222.902344 L 221.28125 227.980469 C 219.527344 228.777344 217.59375 229.632812 215.355469 230.605469 C 213.457031 231.433594 211.421875 232.3125 209.394531 233.171875 C 205.882812 234.644531 201.707031 236.378906 197.378906 238.074219 C 192.507812 239.96875 188.757812 241.359375 185.210938 242.570312 C 180.425781 244.214844 176.480469 245.390625 172.804688 246.273438 L 193.652344 244.375 C 189.847656 247.109375 177.839844 254.53125 163.171875 251.726562 L 159.59375 251.039062 L 162.917969 252.535156 C 162.921875 252.53125 163.121094 252.621094 163.480469 252.757812 Z M 179.808594 213.464844 L 179.894531 213.484375 L 179.984375 213.46875 C 180.574219 213.363281 194.5 210.75 200.296875 201.871094 L 201.425781 200.140625 L 199.703125 201.277344 C 199.660156 201.304688 196.015625 203.703125 191.949219 205.316406 C 192.921875 204.222656 194.378906 202.703125 195.519531 201.996094 L 197.078125 201.03125 L 195.25 201.210938 C 194.589844 201.273438 179.015625 202.828125 171.578125 206.972656 L 169.90625 207.90625 L 171.820312 207.773438 C 171.867188 207.769531 175.550781 207.519531 178.742188 207.71875 C 175.9375 208.386719 171.003906 209.292969 167.210938 208.5625 L 164.285156 207.996094 L 166.933594 209.363281 C 167.085938 209.433594 170.800781 211.324219 179.808594 213.464844 Z M 135.085938 234.101562 C 137.023438 235.949219 139.191406 237.804688 141.523438 239.605469 C 143.855469 241.390625 146.226562 242.988281 148.5625 244.363281 C 151.359375 245.976562 153.886719 247.15625 156.292969 247.960938 L 159.152344 248.921875 L 156.671875 247.203125 C 154.363281 245.605469 152.109375 244.035156 149.839844 242.402344 C 147.699219 240.808594 145.417969 239.113281 143.203125 237.421875 L 136.613281 232.332031 C 134.523438 230.703125 132.265625 228.960938 129.917969 227.261719 L 127.457031 225.476562 L 129.332031 227.871094 C 130.878906 229.859375 132.710938 231.84375 135.085938 234.101562 Z M 202.78125 164.117188 C 201.660156 163.976562 200.539062 163.851562 199.417969 163.726562 C 198.121094 163.578125 196.78125 163.425781 195.472656 163.253906 L 194.265625 163.105469 C 192.269531 162.855469 190.210938 162.601562 188.1875 162.285156 C 187.570312 162.203125 186.984375 162.109375 186.359375 162.011719 C 185.769531 161.917969 185.175781 161.820312 184.550781 161.738281 C 184.320312 161.710938 184.097656 161.679688 183.871094 161.648438 C 183.472656 161.59375 183.0625 161.53125 182.652344 161.503906 L 180.75 161.367188 C 178.140625 161.289062 175.605469 161.378906 173.214844 161.636719 C 170.960938 161.859375 168.542969 162.242188 165.820312 162.820312 C 162.96875 163.460938 160.828125 164.5 158.777344 165.226562 C 158.777344 165.226562 163.96875 164.824219 166.121094 164.582031 C 168.546875 164.28125 170.996094 164.070312 173.382812 163.960938 C 175.523438 163.878906 178.054688 163.824219 180.59375 164.015625 L 182.390625 164.183594 C 182.769531 164.21875 183.152344 164.277344 183.53125 164.332031 C 183.734375 164.367188 183.941406 164.398438 184.144531 164.425781 C 184.730469 164.507812 185.339844 164.617188 185.9375 164.71875 C 186.546875 164.824219 187.183594 164.933594 187.800781 165.023438 C 189.945312 165.335938 192.222656 165.605469 195.207031 165.90625 C 197.621094 166.113281 200.117188 166.332031 202.578125 166.460938 C 206.683594 166.695312 210.425781 166.816406 213.910156 166.816406 C 215.101562 166.816406 216.253906 166.375 217.386719 166.34375 C 217.386719 166.34375 208.015625 164.730469 203.417969 164.203125 Z M 202.78125 164.117188 " fill-opacity="1" fill-rule="nonzero"/></svg>
